<svg xmlns="http://www.w3.org/2000/svg" viewBox="0 0 245.01 221.3"><defs><style>.cls-1{fill:#fff;}.cls-2{fill:none;stroke:#fff;stroke-miterlimit:10;stroke-width:1.68px;}.cls-3{fill:#011218;}.cls-4{fill:#92c95e;}</style></defs><title>Asset 10</title><g id="Layer_2" data-name="Layer 2"><g id="Layer_1-2" data-name="Layer 1"><path class="cls-1" d="M176.91,4.14c-2.44-.47-19.08-3.3-56.33-3.3S66.71,3.67,64.27,4.14a5.36,5.36,0,0,0-4.93,5.17V33.08A9.27,9.27,0,0,0,67.14,42l52.44,12,1,.24,1-.24L174,42a9.25,9.25,0,0,0,7.79-8.94V9.33a5.34,5.34,0,0,0-4.89-5.19"/><path class="cls-2" d="M176.91,4.14c-2.44-.47-19.08-3.3-56.33-3.3S66.71,3.67,64.27,4.14a5.36,5.36,0,0,0-4.93,5.17V33.08A9.27,9.27,0,0,0,67.14,42l52.44,12,1,.24,1-.24L174,42a9.25,9.25,0,0,0,7.79-8.94V9.33A5.34,5.34,0,0,0,176.91,4.14Z"/><path class="cls-3" d="M176.91,4.14c-2.44-.47-19.08-3.3-56.33-3.3S66.71,3.67,64.27,4.14a5.36,5.36,0,0,0-4.93,5.17V33.08A9.27,9.27,0,0,0,67.14,42l52.44,12,1,.24,1-.24L174,42a9.25,9.25,0,0,0,7.79-8.94V9.33a5.34,5.34,0,0,0-4.89-5.19"/><path class="cls-1" d="M159.46,22.73l2.79-2.16c.5-.38.93-.68,1.28-.94,1.45-1,.59-1.54-.62-1.54h-4.38a.75.75,0,0,0,.66.73c.85.05,1.21.31,1.21.66s-.36.91-1,1.49l-4.25,3.42s0-9.81,0-10.85a1.5,1.5,0,0,0-1.52-1.69h-5s0,.66.57.76c.92.16.83.64.83,1.72V29c0,1,0,2.4,0,2.4h5.17V25.62l0-.9,7.6,9-87.61,2.9-1.87,0,1.9,0,96.76.1Z"/><path class="cls-1" d="M130.81,19.74a1.54,1.54,0,0,0-1.48-1.65H124.5a.82.82,0,0,0,.68.78c.86.19.73.68.73,1.71V29c0,1,0,2.42,0,2.42h4.92Z"/><path class="cls-1" d="M128.24,15.73a2.48,2.48,0,0,0,2.7-2.15,2.78,2.78,0,0,0-5.43,0c0,1.2,1.2,2.15,2.73,2.15"/><path class="cls-1" d="M89.7,26c0-3-1.39-4.46-5.26-6.1l-3.61-1.71c-1.63-.65-3-1.51-3-3,0-1,1.26-2.22,3.27-2.22a6.84,6.84,0,0,1,6.5,3.66c.19.41.68,1.18,1.16,1.18h.56v-5a28,28,0,0,0-8.8-1.49c-4.18,0-8,2.35-8,5.86,0,2.64,1.61,4.68,5.78,6.29l3.34,1.52c1.79.82,3.18,1.56,3.18,2.81S83.56,30.39,81,30.39a9.28,9.28,0,0,1-7.4-4.21c-.21-.36-.66-1.07-.95-1.07h-.54v5.43a29.81,29.81,0,0,0,8.7,1.39c5.52,0,8.89-2.28,8.89-5.94"/><path class="cls-1" d="M107.11,12.6c.82.2.85.69.85,1.68V29c0,1,0,2.41,0,2.41h5.15V21.28c.85-1,1.29-1.55,2.39-1.55,1.44,0,1.86.79,1.86,2.36V29c0,1,0,2.41,0,2.41h4.92l0-9.09c0-3-1.09-4.57-4.26-4.58a6.43,6.43,0,0,0-5,2.23s0-5.29,0-6.45a1.63,1.63,0,0,0-1.5-1.65h-5.13s0,.54.66.76"/><path class="cls-1" d="M98.78,31.79a8.91,8.91,0,0,0,6.93-3l-.21-.14c-.34-.23-1,.06-1.24.2a4.74,4.74,0,0,1-2.88.9c-3,0-4.92-2.26-4.93-6.4a4.08,4.08,0,0,1,1.18-3.09c2.06-1.74,4.62-.44,5.49.56.64.72,2,1,2.38.42.8-1.3-1.54-2.8-3-3.16a8.39,8.39,0,0,0-2.7-.38c-4.61,0-8.32,3-8.32,7.24,0,4,3.27,6.86,7.3,6.86"/><path class="cls-1" d="M140.64,31.79a8.92,8.92,0,0,0,6.92-3l-.2-.14c-.36-.23-1,.06-1.25.2a4.69,4.69,0,0,1-2.87.9c-3.05,0-4.94-2.26-4.94-6.4a4,4,0,0,1,1.2-3.09c2-1.74,4.59-.44,5.48.56.64.72,2,1,2.38.42.78-1.3-1.57-2.8-3-3.16a8.72,8.72,0,0,0-2.71-.38c-4.63,0-8.34,3-8.34,7.24,0,4,3.3,6.86,7.32,6.86"/><path class="cls-1" d="M168.68,19.48a4,4,0,1,1-4.16,3.92,4,4,0,0,1,4.16-3.92m0,7.3a3.36,3.36,0,1,0-3.41-3.38,3.33,3.33,0,0,0,3.41,3.38m-1.6-5.67h1.85c1.15,0,1.71.44,1.71,1.32s-.56,1.18-1.27,1.27l1.37,2h-.81l-1.3-2h-.82v2h-.73Zm.73,2.05h.79c.67,0,1.28,0,1.28-.77s-.56-.7-1.06-.7h-1Z"/><path class="cls-4" d="M69.49,181.68c.5-.67,1.15-.68,2-.08l.26-.46a14,14,0,0,0,1.48.4,1.66,1.66,0,0,0,.94-.07,4,4,0,0,1,1.73-.3c3.16,0,6.33,0,9.49,0a16,16,0,0,1,2,.15,3.41,3.41,0,0,1,.93.27,1,1,0,0,1,.69,1.17,3.73,3.73,0,0,0,.13,2.06,3.16,3.16,0,0,1,0,1.27.72.72,0,0,1-.83-.23,1.56,1.56,0,0,0-1.9-.39c-.27.13-.66,0-1,.1l.58.21-.94.09c0-.1-.07-.2-.12-.35-.66.19-1.41.87-1.93-.29-.4.65-1,.26-1.49.32a12.56,12.56,0,0,1-1.5,0,1,1,0,0,0-.35.14,1.47,1.47,0,0,1-.36.17c-.64.05-1.28.08-1.92.14a4.62,4.62,0,0,0-.61.11c-.13,0-.3.11-.38.06-.68-.41-1.37-.09-2,0a2.55,2.55,0,0,1-1.61-.17c-.21-.13-.22-.11-.66.07l.39.31H64.18v10.2c.41,0,.75.06,1.09.06h12a20.35,20.35,0,0,0,2.21,0,3.51,3.51,0,0,1,1.92.62c.38.17.68.53,1.06.67a1.58,1.58,0,0,1,1.11,1.6c0,.67,0,1.34,0,2.07-.3,0-.56,0-.82,0-2.07,0-4.14,0-6.22,0-.65,0-1.3-.14-2-.19-.4,0-.8.06-1.2,0a8.47,8.47,0,0,1-1-.16,1.26,1.26,0,0,1-1.83-.06l-.4.36-.14-.29a1.57,1.57,0,0,1-1.32-.06,1.36,1.36,0,0,0-1.06.14,2.44,2.44,0,0,1-1.26.23H64.34c-.19.65-.23,10.1-.06,11,1.19.34,2.51-.26,3.46.33.73-.08,1.29-.18,1.84-.19,1.08,0,2.16,0,3.25,0l1.94,0h.08a4.77,4.77,0,0,0,2.62.17c.4,0,.75-.07,1.09.33a.59.59,0,0,1,.71-.57c.29,0,.7,0,.87.12s.59-.33.75.13c0,0,.17,0,.26,0a1.39,1.39,0,0,1,1.09.08c.17.11.51,0,.77-.05a9,9,0,0,1,1.43-.21c1,0,2,.12,2.94.17.69,0,1,.58,1.54.9.11.07.14.34.12.49a3.24,3.24,0,0,0-.2,1.45c0,.17-.19.4-.28.57.11.49.21,1,.33,1.49-.3,0-.53,0-.76,0H69.07c-.78,0-1.56,0-2.33,0a1.84,1.84,0,0,1-.63-.24,3.55,3.55,0,0,1-.82.27c-.62.07-1.23-.46-1.87,0,.09-.09.16-.17.33-.37a1.75,1.75,0,0,1-1.48-.13,1.35,1.35,0,0,0-1.37.27,1.35,1.35,0,0,1-1,.19c-.48-.06-1-.06-1.45-.14a4.29,4.29,0,0,1-1.23-.38,1.38,1.38,0,0,1-.82-1.53,1.63,1.63,0,0,0-.15-1.29.25.25,0,0,1,0-.22c.35-.51.14-1.09.26-1.64a7.71,7.71,0,0,0,.07-.84,2.46,2.46,0,0,1,.13-.5c0-.11.19-.24.17-.33a17.89,17.89,0,0,1-.05-1.94,4.43,4.43,0,0,1,.12-1,.67.67,0,0,1-.51-.8,5,5,0,0,1,.5-1l-.57-.06a4.54,4.54,0,0,1,.46-1.33,1,1,0,0,0-.14-1.47c-.71-.59-.47-1.22-.4-1.88a3.37,3.37,0,0,0,0-.44c-.06-.67-.18-1.34-.18-2,0-1.74,0-3.48,0-5.23a3.56,3.56,0,0,1,.25-1.36,1.22,1.22,0,0,0,0-.88,1.08,1.08,0,0,1,.1-1.16l-.4-.13c.29-.3.18-.61.09-.94-.2-.7-.13-.86.48-1.26-.59-.37-.23-.9-.25-1.36a10.17,10.17,0,0,0-.12-2.05,2.74,2.74,0,0,1,.28-2.18,2.35,2.35,0,0,1,1.71-.95,14.87,14.87,0,0,1,2.2-.2c1.69,0,3.38,0,5.06,0a1.31,1.31,0,0,1,.49,0,5.56,5.56,0,0,0,2,.16c.48,0,1-.32,1.47.3M88,215.05c0,.43-.07.79.57.8-.16-.3.14-.77-.57-.8"/><path class="cls-4" d="M98.67,212.72c-.74.24-.82.19-1.26-.48S96.47,211,96,210.3a1.1,1.1,0,0,1-.16-1.18l-.4-.27.36-.26a1.44,1.44,0,0,1-.08-1.15c.22-.57-.17-1.07-.63-1.42a.91.91,0,0,1-.44-1,2,2,0,0,0-.19-1.46,1.59,1.59,0,0,1-.15-.76c0-2.47,0-4.94.06-7.41a33.3,33.3,0,0,1,.59-3.93c.11-.65.4-1.13,1.22-1.07a6,6,0,0,0,.45-1.11c.08-.37.08-1.05.84-1.09.16,0,.32-.24.65-.52l-.48-.21c0-.21.49-.2.21-.54-.11-.14,0-.31.23-.4a.58.58,0,0,0,.31-.62c0-.07,0-.19,0-.2.61-.29.72-1,1.3-1.35a17.35,17.35,0,0,1,7-2.54,6.6,6.6,0,0,1,1.41.08,6.58,6.58,0,0,0,2-.24,1.13,1.13,0,0,1,1.11.22c0-.67.48-.7.94-.65a2.94,2.94,0,0,1,.78.17c.19.07.41-.42.55,0a1.61,1.61,0,0,1,.26-.09c.24-.05.53-.18.71-.1a1.91,1.91,0,0,0,1.41-.06,2.37,2.37,0,0,1,.65,0h5.73c.64,0,1.29.07,1.93.14a1,1,0,0,1,.58.23,1.44,1.44,0,0,0,1.8.11.89.89,0,0,1,1.09,0,2.12,2.12,0,0,0,2.4.11.78.78,0,0,1,.72-.13c.19.07.49-.14.8-.25a8.22,8.22,0,0,1,0,2.27c-.18,1.93-.66,2.41-2.66,2.56-1.41.11-2.83.1-4.25.11-.46,0-.86-.28-1.38-.16a5.33,5.33,0,0,1-1.49,0c-.3,0-.6-.08-.94-.12a2.76,2.76,0,0,1-.71.3,1.21,1.21,0,0,1-1.18-.4l-.4.54c0-.25-.05-.35-.06-.46l-.07,0c-.55.34-1.07,0-1.6-.07a1.16,1.16,0,0,0-.69.17,2.66,2.66,0,0,1-1.41.27,21,21,0,0,0-5.75.62c-.58.16-1.14.36-1.75.56l-.49-.65a5,5,0,0,0-2.22,2,5.23,5.23,0,0,0-1.07,2.24c0,.13-.18.25-.28.37a2.9,2.9,0,0,0-.75,1.61,3.22,3.22,0,0,1-.4,1.08,1.87,1.87,0,0,0,.23,2.06l-.56.94.4.15c.15.68-.39,1.36,0,2.05,0,.08-.17.29-.3.49l.62.25c0,.5,0,1.06,0,1.61.06.76.15,1.52.28,2.28.19,1,.35,2,.64,3a6.78,6.78,0,0,0,2.38,3.47,2.11,2.11,0,0,1,.48.74c.41.43,1.27,0,1.5.82.64-.47,1.16-.06,1.69.12.16.05.25.39.49.11.3.52,1,.12,1.4.64a1.06,1.06,0,0,0,1.36.12,1.55,1.55,0,0,1,1.84.08,1.91,1.91,0,0,0,1.84,0,6.42,6.42,0,0,1,2.2-.51c3.06,0,6.11,0,9.16,0a11.58,11.58,0,0,1,2,.17,1.87,1.87,0,0,1,1.83,1.79c.11.8.13,1.6.2,2.49l-1.82.35c0,.06-.05.22-.1.44l-.53-.54c-.42-.42-.42-.42-.95,0a.6.6,0,0,1-.3.07c-.32,0-.64,0-1,0q-.06.14-.15.3c0-.11-.06-.21-.1-.34-.32.19-.62.34-.87-.1l-.81.49-.16-.33a3.45,3.45,0,0,0-.69.36.53.53,0,0,1-.8-.08,1.59,1.59,0,0,0-1.45-.49c-1,.09-2,.21-3,.32,0,.13-.05.25-.08.39-4.52,0-9,.14-13.49-.9a15.75,15.75,0,0,1-2.34-.7,3.64,3.64,0,0,1-1.58-1,7.57,7.57,0,0,0-2.27-1.83,2.61,2.61,0,0,1-.5-.63"/><path class="cls-4" d="M157.44,191.46l.67.29-.92.15a1.66,1.66,0,0,1-.62.95,1.27,1.27,0,0,0-.32,1.51c.13.45.13.44-.12.89a5.7,5.7,0,0,1-1.12-1.39c-.37-.48-.71-1-1.11-1.53-.32.16-.6.29-.87.45l-2.45,1.55a1.38,1.38,0,0,1-.72.29c-.84-.13-1.2.41-1.48,1a1,1,0,0,1-.93.68,1.78,1.78,0,0,0-1.4.59c-.24.35-.34.8-.64,1.07s-.66.45-.62.9a4.6,4.6,0,0,0-1,2,10.29,10.29,0,0,1-.43,1.17,2,2,0,0,0,0,1,2.59,2.59,0,0,0,.37.07c-.43.17-.65.39-.42.79a.58.58,0,0,1,0,.37,13.7,13.7,0,0,0,.31,7.51,12.59,12.59,0,0,0,4.84,6.23,14.5,14.5,0,0,1,1.28,1c-.18,0-.36-.09-.54-.15a23.11,23.11,0,0,1-10.95-7.71,3.09,3.09,0,0,1-.89-2.71c.14-.55-.3-.9-.41-1.37,0-.15-.37-.24-.56-.36a5.33,5.33,0,0,0,.15-.71c0-.15.09-.45-.29-.3a2.67,2.67,0,0,1-.27-.69,3,3,0,0,0-1.27-2.28s-.11,0-.11-.07a4.34,4.34,0,0,1-.06-2.37c0-.1,0-.24,0-.36a1.48,1.48,0,0,1,.05-1.13c.08-.13.36-.47,0-.67.13-.19.25-.39.39-.59l-.28-.76.44-.11c-.19-.24-.35-.48-.1-.74.05-.06.15-.16.14-.18-.43-.6.11-.69.48-.91.1-.06.14-.26.17-.4.15-.84.27-1.69.44-2.53a3.64,3.64,0,0,1,.31-.95,17.47,17.47,0,0,1,2.59-3.74c.1-.12.34-.26.46-.22.43.13.69-.13.93-.35.78-.71,1.53-1.45,2.35-2.22l-.55-.15a16.75,16.75,0,0,1,3.88-2.72c-.77-1.17-1.61-2.27-2.45-3.51a4.51,4.51,0,0,1,.54,0l7.9.56a8.69,8.69,0,0,1,.89.05c.31.06.63.17,1,.27.52-.47,1-.43,1.8.25.21-.08.21-.49.59-.37.21.07.39,0,.6.27a1.39,1.39,0,0,0,1.94.27,1.72,1.72,0,0,1,1.91-.11,1.34,1.34,0,0,0,1,0,6.25,6.25,0,0,1,2.79,0,4.45,4.45,0,0,0-.16.48c-.15.78-1,1.19-1.1,2a6.26,6.26,0,0,1-1.11,1.94c0,.07-.11.13-.12.2-.17,1-1,1.59-1.46,2.39a7.39,7.39,0,0,1-.91,1.1,9.24,9.24,0,0,0-.93,1.73,5.77,5.77,0,0,1-.57.72c0,.28.14.69,0,1s-.56.47-.91.74"/><path class="cls-4" d="M182.76,203.07l.4,0c.07.46-.4.43-.63.57-.49.33-.49.28-.21.82a.88.88,0,0,1,0,.6,8.63,8.63,0,0,1-.37,1l.37.29-.52.47.41.78-.47.16c.16.23.36.41.17.73s-.43.83-.66,1.24a13.09,13.09,0,0,1-.8,1.41c-.33.42-.66.84-1,1.23s-.75.83-1.14,1.22-.82.77-1.24,1.14-.87.71-1.33,1-.87.62-1.32.91-1,.58-1.46.86l-.39.23.21.71-.47-.37a.39.39,0,0,0,.21.59c.75.28.87,1,1.22,1.56a2.29,2.29,0,0,1,.19.92,2.92,2.92,0,0,1-3-1,1.84,1.84,0,0,0-1.18.19c-.13.09-.39,0-.62,0,0,.13,0,.27,0,.42-.06,0-.13,0-.16,0a3.35,3.35,0,0,0-.64-.66c-.2-.12-.61-.44-.68.17-.34,0-.7.14-1,.11s-.66-.29-.93.14a3.65,3.65,0,0,1-.64-.2l-.66.39-.21-.29c-.53.44-1.13.07-1.69.14-.65-.53-1.4-.22-2.11-.21-.48,0-1,.13-1.45.11-1.61-.07-3.21-.18-5-.28.23-.48.38-.87.6-1.24a4.18,4.18,0,0,1,.91-1.35,4.14,4.14,0,0,0,.82-1.42,1.51,1.51,0,0,1,1.07-.93c-.22-.35-.44-.73-.11-1.06a6.19,6.19,0,0,1,1-.66l-.3-.26a1.49,1.49,0,0,1,1-.91,1.1,1.1,0,0,0,.74-1.39,1.43,1.43,0,0,1,.59-1.65,1.48,1.48,0,0,0,.51-1.6,1.57,1.57,0,0,1,.13-1.13c.46-.94.93-1.87,1.47-2.95l2.39,3.19h1.53c0-.14-.08-.3-.15-.54l.68-.41c-.05.33-.1.64-.15,1a2.46,2.46,0,0,0,.62,0,6.34,6.34,0,0,0,2.47-1.31,5.74,5.74,0,0,0,1.57-1.65c.09-.16.35-.24.52-.36a3.18,3.18,0,0,0,1.12-1.21,4.69,4.69,0,0,1,.82-1c.23-.28.5-.51.39-1-.07-.26,0-.84,0-1l.82-.72-.29-.3c.14-.65.77-1.14.65-1.89,0-.1.24-.25.38-.38-.57-.39-.33-.92-.21-1.39.17-.63.48-1.23.64-1.86.06-.26-.12-.57-.19-.86a3.12,3.12,0,0,1-.17-.65,12,12,0,0,0-3.61-8.38l-.05-.06a7.63,7.63,0,0,0-1-1.13,7.94,7.94,0,0,0-1.29-.69,2.54,2.54,0,0,1-.36-.37,3.06,3.06,0,0,1,.6.06c.67.29,1.35.57,2,.89a5.43,5.43,0,0,1,.88.63c.17.12.31.34.49.39,1,.29,1.51,1.15,2.27,1.72a13.24,13.24,0,0,0,2.86,2.21c.2.08.31.37.51.62a.54.54,0,0,1,.72.19,18.68,18.68,0,0,1,4.57,12.16,1.08,1.08,0,0,1-.42.91,3.46,3.46,0,0,1-1.13.85Z"/><path class="cls-4" d="M145.26,208l.39-.11a1.49,1.49,0,0,1-.15.2s-.09,0-.24-.09"/><path class="cls-4" d="M144.43,210.32l-.18.11a.54.54,0,0,1-.1-.16s.08-.09.1-.08.1.07.18.13"/><path class="cls-4" d="M183.79,211.18l-.41.13,0-.12.41-.13,0,.12"/><path class="cls-3" d="M244,112.79a3.36,3.36,0,0,1-2.35.91,3.32,3.32,0,0,1-2.39-.93,3.14,3.14,0,0,1,.07-4.62,3.4,3.4,0,0,1,2.32-.87,3.27,3.27,0,0,1,2.37.94,3.11,3.11,0,0,1,0,4.57m-4.33-4.16a2.48,2.48,0,0,0-.8,1.86,2.53,2.53,0,0,0,.81,1.89,2.87,2.87,0,0,0,3.93,0,2.56,2.56,0,0,0,.81-1.89,2.49,2.49,0,0,0-.81-1.86,2.83,2.83,0,0,0-3.94,0m.5,3.64v-3.56H242a1.7,1.7,0,0,1,.73.19.89.89,0,0,1,.5.85.77.77,0,0,1-.26.64,1.3,1.3,0,0,1-.65.24,1.33,1.33,0,0,1,.53.21,1,1,0,0,1,.34.8v.42a.19.19,0,0,0,0,.1l0,.1h-.93a2.39,2.39,0,0,1-.06-.49,1.43,1.43,0,0,0-.07-.43.45.45,0,0,0-.27-.27,1.65,1.65,0,0,0-.33,0l-.22,0h-.2v1.26Zm1.78-2.85a1.62,1.62,0,0,0-.56-.08h-.24v1h.38a.9.9,0,0,0,.53-.13.47.47,0,0,0,.19-.42.39.39,0,0,0-.3-.4"/><polygon class="cls-3" points="36.12 113.27 26.72 97.39 15.61 118.07 0 124.89 21.22 89.91 6.12 65.22 17.25 65.22 26.72 82.28 35.79 67.02 46.78 67.02 32.34 89.91 46.78 113.27 36.12 113.27"/><polygon class="cls-3" points="61.49 80.69 61.49 108.65 54.86 108.65 54.86 80.69 42.16 80.69 46.14 74.62 71.89 74.62 71.89 80.69 61.49 80.69"/><path class="cls-3" d="M95.63,108.65a27.82,27.82,0,0,1-.7-4.84c-.6-6.33-2.68-8.06-8.47-8.06H81.11v12.9H74.42v-34H89.76a24.91,24.91,0,0,1,7,.77c3.67,1.12,5.89,4.64,5.89,8.72,0,4.7-1.7,8.42-6,9.9,2.73,1.08,3.76,1.9,4.89,4.85.85,2.24.76,4.69,1,7a14.57,14.57,0,0,0,.56,2.75Zm-5.17-28H81.11v9h9.35c3.06,0,4.85-1.07,4.85-4.68s-2.07-4.3-4.85-4.3"/><polygon class="cls-3" points="162.78 108.65 162.78 83.09 154.6 108.65 147.74 108.65 139.97 83.09 139.97 108.65 133.62 108.65 133.62 74.62 143.41 74.62 151.22 101.2 159.4 74.62 169.18 74.62 169.18 108.65 162.78 108.65"/><path class="cls-3" d="M189,108.65c-2.72,0-6.16-.15-8.75-1.17-5.83-2.29-7.75-10-7.75-16.12,0-5.92,1.92-11.84,6.72-15.1,2.12-1.43,4.75-1.64,7.19-1.64h7l4.26,6.07H189a16.78,16.78,0,0,0-5.26.62,5.28,5.28,0,0,0-2.26,1.88c-1.13,1.58-1.23,3.57-1.42,5.52h11.6v6H180.1c.52,6.53,3.63,7.86,9.22,7.86h8.43l-4,6.06Z"/><path class="cls-3" d="M122,108.65c-2.72,0-6.17-.15-8.75-1.17-5.83-2.29-7.76-10-7.76-16.12,0-5.92,1.93-11.84,6.72-15.1,2.13-1.43,4.75-1.64,7.21-1.64h7l4.26,6.07H122a16.81,16.81,0,0,0-5.27.62,5.25,5.25,0,0,0-2.25,1.88c-1.13,1.58-1.23,3.57-1.42,5.52H124.6v6H113c.53,6.53,3.62,7.86,9.23,7.86h8.41l-4,6.06Z"/><path class="cls-3" d="M225.56,113.72a32.15,32.15,0,0,1-6.24.49H201.07l5.3-8.13h11.69c3.74,0,6.73-.7,6.73-5.46a6.13,6.13,0,0,0-1.46-4.2c-1.15-1.31-3.76-1.38-5.27-1.38h-7.43V86.9h7.43c3.55,0,6.67-.21,6.67-5.1a6.67,6.67,0,0,0-1.15-3.8c-1.4-1.72-3.62-1.58-5.52-1.58H205.89l-6-8.21h19.78c.56,0,1.14.07,1.71.07,3.12.14,5.59,0,8.26,1.93A13.79,13.79,0,0,1,234.7,80.9a11.24,11.24,0,0,1-5.65,10A12.75,12.75,0,0,1,234.7,102c0,6.21-3.55,10.55-9.14,11.72"/><path class="cls-4" d="M183.83,182v.68h-1.21v3.44h-.75v-3.44h-1.22V182Zm4.1,4.12-.14-2.42c0-.32,0-.71,0-1.15h-.05c-.09.36-.21.84-.32,1.22l-.68,2.29h-.78l-.69-2.35-.26-1.16h0c0,.37,0,.77,0,1.15l-.14,2.42h-.72l.27-4.12h1.13l.66,2c.08.32.15.62.25,1h0c.09-.38.18-.73.26-1l.65-2h1.09l.3,4.12Z"/><polygon class="cls-4" points="207.1 125.44 34.45 125.44 19.25 144.66 34.45 163.87 207.11 163.87 222.31 144.66 207.1 125.44"/><path class="cls-3" d="M59.55,153.4H53.69c-7.08,0-9.89-2.18-9.89-8v-9.81c4,0,4,0,4,2.22v7.45c0,3.67,1.09,5.44,5.85,5.44h5.86V135.62c4,0,4,0,4,2.42v12.69c0,2.67,0,2.67-4,2.67"/><path class="cls-3" d="M71.77,153.4c-3.72,0-3.72,0-3.72-2.46V135.65c3.94,0,3.94,0,3.94,2.5v12.79h5.77c3.12,0,3.12,0,3.12,2.46Z"/><path class="cls-3" d="M92.45,138.18H89V153.4c-3.9,0-3.9,0-3.9-2.46V138.18H78.38c0-2.53,0-2.53,2.91-2.53H95.63c0,2.53,0,2.53-3.18,2.53"/><path class="cls-3" d="M98.4,151V135.65c4,0,4,0,4,2.32V153.4c-4,0-4,0-4-2.43"/><path class="cls-3" d="M130.68,151V139.32L124,151.39c-1.13,2-1.08,2-3.13,2h-2l-7.8-14.08V153.4c-3.95,0-3.95,0-3.95-2.43V135.62h2.18c3.68,0,3.63,0,4.9,2.25l5.59,10.06c.27.52,1.08,2.28,1.08,2.28s.82-1.76,1.1-2.28l5.62-10.06c1.23-2.22,1.18-2.25,4.4-2.25h2.68V153.4c-4,0-4,0-4-2.43"/><path class="cls-3" d="M153.24,147.72l-4.72-10.09-4.67,10.09-1,2.22-.72,1.59c-.86,1.84-.86,1.87-5.08,1.87l7.72-15.77c1-2,1-2,3.76-2h2.64l8.94,17.78c-4.18,0-4.18,0-5.09-1.87l-.77-1.59Z"/><path class="cls-3" d="M171.89,138.18H168.4V153.4c-3.9,0-3.9,0-3.9-2.46V138.18h-6.67c0-2.53,0-2.53,2.9-2.53h14.34c0,2.53,0,2.53-3.18,2.53"/><path class="cls-3" d="M181.79,153.4c-3.94,0-3.94,0-3.94-2.52v-12.7c0-2.53,0-2.53,3.94-2.53h8.94c3.27,0,3.27,0,3.27,2.53H181.79v4.92H188c3.23,0,3.23,0,3.23,2.47h-9.41v5.31h8.67c3.54,0,3.54,0,3.54,2.52Z"/><polygon class="cls-3" points="151.23 147.52 148.52 150.11 145.81 147.52 148.52 144.93 151.23 147.52"/></g></g></svg>