<svg xmlns="http://www.w3.org/2000/svg" viewBox="0 0 1266.93 553.89"><defs><style>.cls-1{fill:#fff;}.cls-2{fill:none;stroke:#fff;stroke-miterlimit:10;stroke-width:1.68px;}.cls-3{fill:#011218;}</style></defs><title>Asset 60</title><g id="Layer_2" data-name="Layer 2"><g id="Layer_1-2" data-name="Layer 1"><path class="cls-1" d="M1215.54,34.89c-25.2-4.77-197.15-34-582-34S76.91,30.12,51.7,34.89C23.32,37.8,1,60.64.84,88.34V334c0,45.25,34.54,84.3,80.52,92.38l541.87,124.2L633.57,553l10.19-2.49,541.88-124.2c46.19-8.08,80.45-47.12,80.45-92.38V88.56c-.18-27.92-22.19-50.76-50.55-53.67"/><path class="cls-2" d="M1215.54,34.89c-25.2-4.77-197.15-34-582-34S76.91,30.12,51.7,34.89C23.32,37.8,1,60.64.84,88.34V334c0,45.25,34.54,84.3,80.52,92.38l541.87,124.2L633.57,553l10.19-2.49,541.88-124.2c46.19-8.08,80.45-47.12,80.45-92.38V88.56C1265.91,60.64,1243.9,37.8,1215.54,34.89Z"/><path class="cls-3" d="M1215.54,34.89c-25.2-4.77-197.15-34-582-34S76.91,30.12,51.7,34.89C23.32,37.8,1,60.64.84,88.34V334c0,45.25,34.54,84.3,80.52,92.38l541.87,124.2L633.57,553l10.19-2.49,541.88-124.2c46.19-8.08,80.45-47.12,80.45-92.38V88.56c-.18-27.92-22.19-50.76-50.55-53.67"/><path class="cls-1" d="M1035.25,227l28.86-22.3c5.15-3.93,9.66-7.08,13.26-9.76,15-10.18,6-15.84-6.41-15.84h-45.25s.08,6.72,6.83,7.54c8.71.53,12.49,3.21,12.49,6.82,0,4.21-3.78,9.33-10.35,15.41l-44,35.32c0-.15-.07-101.38,0-112.09s-6-17.5-15.65-17.5H923.43s0,6.81,5.87,7.89c9.52,1.62,8.58,6.54,8.58,17.7l-.08,151.51c0,10-.34,24.8-.34,24.8l53.35.08-.1-59.7-.32-9.35L1069,340.65l-905.24,30-19.32.52,19.6.25,999.81,1Z"/><path class="cls-1" d="M739.28,196.13c0-11.24-8.21-17.08-15.28-17.08H674.09a8.52,8.52,0,0,0,7,8.09c8.94,2,7.59,7.06,7.59,17.71v86.66c0,10.24-.19,25-.19,25h50.83Z"/><path class="cls-1" d="M712.69,154.74c15.23,0,27.87-9.82,27.87-22.29S728.2,110,712.69,110c-16.05,0-28.17,10-28.17,22.41s12.4,22.29,28.17,22.29"/><path class="cls-1" d="M314.52,260.69c0-30.61-14.36-46.07-54.34-63.06L222.89,180c-16.86-6.67-31-15.52-30.82-31-.22-9.93,13-22.91,33.71-22.91,37.91,0,58.47,20,67.23,37.77,1.93,4.27,7,12.18,12,12.18h5.82V123.89s-41.24-15.42-91-15.42c-43.21,0-82.8,24.3-82.8,60.61.06,27.3,16.67,48.3,59.73,65l34.5,15.66c18.5,8.52,32.87,16.15,32.87,29.08s-13.06,27.36-39.58,27.36c-31.53,0-63.56-21.54-76.46-43.55-2.1-3.66-6.81-11.07-9.76-11.07h-5.61v56.19S174.32,322,222.61,322c57,0,91.91-23.51,91.91-61.35"/><path class="cls-1" d="M494.34,122.31c8.52,2.15,8.79,7.12,8.87,17.38l-.08,151.82c0,10.69-.27,24.9-.27,24.9h53.25V212.07C564.82,201.4,569.42,196,580.76,196c14.92,0,19.25,8.17,19.25,24.41v71.1c0,10.07.38,24.9.38,24.9h50.83l.42-94c0-31.27-11.24-47.2-44.06-47.25-21,0-38,8-51.47,23,0,0-.11-54.67,0-66.61s-10.14-17.12-15.5-17.12H487.56s-.54,5.64,6.78,7.83"/><path class="cls-1" d="M408.32,320.62c29,0,53.34-10.53,71.58-31.05,0,0,.77.43-2.15-1.47-3.56-2.43-10.45.6-12.8,2.09a49,49,0,0,1-29.73,9.28c-31.23,0-50.9-23.36-51-66.11,0-14.68,5.05-25.16,12.21-32,21.28-18,47.75-4.55,56.77,5.78,6.6,7.44,21,10.33,24.59,4.33,8.29-13.38-15.89-28.88-31-32.67-.26-.1-10.74-3.93-27.89-3.93-47.72-.14-86,31.08-86,74.84-.26,41.43,33.79,70.87,75.42,70.87"/><path class="cls-1" d="M840.79,320.62c29,0,53.18-10.53,71.52-31.05,0,0,.89.43-2.08-1.45-3.68-2.45-10.45.58-12.91,2.07-9,6.31-18,9.28-29.67,9.28-31.46,0-51-23.36-51-66.15,0-14.64,5-25.12,12.33-31.92,21.07-18,47.48-4.55,56.64,5.78,6.59,7.44,20.86,10.33,24.59,4.33,8.11-13.38-16.16-28.88-30.87-32.65-.45-.12-11-4-28-4-47.83-.14-86.11,31.08-86.11,74.84-.1,41.43,34,70.87,75.56,70.87"/><path class="cls-1" d="M1130.55,193.42c23.28,0,42.78,17.44,42.78,40.52,0,23.4-19.5,41-42.78,41-23.46,0-43-17.58-43-41,0-23.08,19.57-40.52,43-40.52m0,75.46c19.76,0,35.15-15,35.15-34.94,0-19.59-15.39-34.52-35.15-34.52-20,0-35.25,14.93-35.25,34.52,0,19.89,15.26,34.94,35.25,34.94M1114,210.26h19.1c11.94,0,17.66,4.54,17.66,13.68,0,8.5-5.72,12.13-13.08,13.1l14.12,20.87h-8.31L1130,237.48h-8.39v20.43H1114Zm7.61,21.25h8.1c6.94,0,13.22-.43,13.22-8,0-6.23-5.76-7.23-11-7.23H1121.6Z"/></g></g></svg>