<svg width="877" height="150" viewBox="0 0 877 150" fill="none" xmlns="http://www.w3.org/2000/svg">
<g filter="url(#filter0_d)">
<path d="M756.593 3H116.993L10 67.2683L116.993 139H756.593L867 68.0976L756.593 3Z" fill="#92C95E"/>
<path d="M756.593 3H116.993L10 67.2683L116.993 139H756.593L867 68.0976L756.593 3Z" stroke="#437D3B" stroke-width="6"/>
</g>
<g filter="url(#filter1_d)">
<path d="M153.828 101V48.024H143.68V39.768H172.748V48.024H162.6V101H153.828ZM175.097 54.216C175.097 51.7507 175.527 49.572 176.387 47.68C177.247 45.788 178.394 44.2113 179.827 42.95C181.203 41.746 182.751 40.8287 184.471 40.198C186.249 39.5673 188.026 39.252 189.803 39.252C191.581 39.252 193.329 39.5673 195.049 40.198C196.827 40.8287 198.432 41.746 199.865 42.95C201.241 44.2113 202.359 45.788 203.219 47.68C204.079 49.572 204.509 51.7507 204.509 54.216V86.552C204.509 89.132 204.079 91.3393 203.219 93.174C202.359 95.0087 201.241 96.528 199.865 97.732C198.432 98.9933 196.827 99.9393 195.049 100.57C193.329 101.201 191.581 101.516 189.803 101.516C188.026 101.516 186.249 101.201 184.471 100.57C182.751 99.9393 181.203 98.9933 179.827 97.732C178.394 96.528 177.247 95.0087 176.387 93.174C175.527 91.3393 175.097 89.132 175.097 86.552V54.216ZM183.869 86.552C183.869 88.6733 184.443 90.25 185.589 91.282C186.793 92.2567 188.198 92.744 189.803 92.744C191.409 92.744 192.785 92.2567 193.931 91.282C195.135 90.25 195.737 88.6733 195.737 86.552V54.216C195.737 52.0947 195.135 50.5467 193.931 49.572C192.785 48.54 191.409 48.024 189.803 48.024C188.198 48.024 186.793 48.54 185.589 49.572C184.443 50.5467 183.869 52.0947 183.869 54.216V86.552ZM212.231 101V39.768H220.659L231.925 72.19H232.097L243.277 39.768H251.791V101H243.019V63.762H242.847L234.161 90.078H229.775L221.175 63.762H221.003V101H212.231ZM260.018 101V39.768H286.162V48.024H268.79V65.998H283.926V74.254H268.79V92.228H286.162V101H260.018ZM291.848 101V39.768H300.276L311.542 72.19H311.714L322.894 39.768H331.408V101H322.636V63.762H322.464L313.778 90.078H309.392L300.792 63.762H300.62V101H291.848ZM339.119 54.216C339.119 51.7507 339.549 49.572 340.409 47.68C341.269 45.788 342.416 44.2113 343.849 42.95C345.225 41.746 346.773 40.8287 348.493 40.198C350.27 39.5673 352.048 39.252 353.825 39.252C355.602 39.252 357.351 39.5673 359.071 40.198C360.848 40.8287 362.454 41.746 363.887 42.95C365.263 44.2113 366.381 45.788 367.241 47.68C368.101 49.572 368.531 51.7507 368.531 54.216V86.552C368.531 89.132 368.101 91.3393 367.241 93.174C366.381 95.0087 365.263 96.528 363.887 97.732C362.454 98.9933 360.848 99.9393 359.071 100.57C357.351 101.201 355.602 101.516 353.825 101.516C352.048 101.516 350.27 101.201 348.493 100.57C346.773 99.9393 345.225 98.9933 343.849 97.732C342.416 96.528 341.269 95.0087 340.409 93.174C339.549 91.3393 339.119 89.132 339.119 86.552V54.216ZM347.891 86.552C347.891 88.6733 348.464 90.25 349.611 91.282C350.815 92.2567 352.22 92.744 353.825 92.744C355.43 92.744 356.806 92.2567 357.953 91.282C359.157 90.25 359.759 88.6733 359.759 86.552V54.216C359.759 52.0947 359.157 50.5467 357.953 49.572C356.806 48.54 355.43 48.024 353.825 48.024C352.22 48.024 350.815 48.54 349.611 49.572C348.464 50.5467 347.891 52.0947 347.891 54.216V86.552ZM404.632 57.398H395.86V55.42C395.86 53.4133 395.373 51.6933 394.398 50.26C393.481 48.7693 391.904 48.024 389.668 48.024C388.464 48.024 387.489 48.2533 386.744 48.712C385.999 49.1707 385.397 49.744 384.938 50.432C384.479 51.1773 384.164 52.0373 383.992 53.012C383.82 53.9293 383.734 54.904 383.734 55.936C383.734 57.14 383.763 58.1433 383.82 58.946C383.935 59.7487 384.164 60.4653 384.508 61.096C384.852 61.7267 385.339 62.2713 385.97 62.73C386.658 63.1887 387.575 63.6473 388.722 64.106L395.43 66.772C397.379 67.5173 398.956 68.406 400.16 69.438C401.364 70.4127 402.31 71.5593 402.998 72.878C403.629 74.254 404.059 75.8307 404.288 77.608C404.517 79.328 404.632 81.306 404.632 83.542C404.632 86.122 404.374 88.53 403.858 90.766C403.342 92.9447 402.511 94.808 401.364 96.356C400.16 97.9613 398.583 99.2227 396.634 100.14C394.685 101.057 392.305 101.516 389.496 101.516C387.375 101.516 385.397 101.143 383.562 100.398C381.727 99.6527 380.151 98.6207 378.832 97.302C377.513 95.9833 376.453 94.464 375.65 92.744C374.905 90.9667 374.532 89.046 374.532 86.982V83.714H383.304V86.466C383.304 88.0713 383.763 89.5333 384.68 90.852C385.655 92.1133 387.26 92.744 389.496 92.744C390.987 92.744 392.133 92.5433 392.936 92.142C393.796 91.6833 394.455 91.0527 394.914 90.25C395.373 89.4473 395.631 88.5013 395.688 87.412C395.803 86.2653 395.86 85.004 395.86 83.628C395.86 82.0227 395.803 80.704 395.688 79.672C395.573 78.64 395.344 77.8087 395 77.178C394.599 76.5473 394.054 76.0313 393.366 75.63C392.735 75.2287 391.875 74.7987 390.786 74.34L384.508 71.76C380.724 70.212 378.173 68.1767 376.854 65.654C375.593 63.074 374.962 59.8633 374.962 56.022C374.962 53.7287 375.277 51.55 375.908 49.486C376.539 47.422 377.485 45.6447 378.746 44.154C379.95 42.6633 381.469 41.488 383.304 40.628C385.196 39.7107 387.432 39.252 390.012 39.252C392.191 39.252 394.169 39.6533 395.946 40.456C397.781 41.2587 399.357 42.3193 400.676 43.638C403.313 46.39 404.632 49.5433 404.632 53.098V57.398Z" fill="#295C22"/>
<path d="M153.828 101H152.828V102H153.828V101ZM153.828 48.024H154.828V47.024H153.828V48.024ZM143.68 48.024H142.68V49.024H143.68V48.024ZM143.68 39.768V38.768H142.68V39.768H143.68ZM172.748 39.768H173.748V38.768H172.748V39.768ZM172.748 48.024V49.024H173.748V48.024H172.748ZM162.6 48.024V47.024H161.6V48.024H162.6ZM162.6 101V102H163.6V101H162.6ZM154.828 101V48.024H152.828V101H154.828ZM153.828 47.024H143.68V49.024H153.828V47.024ZM144.68 48.024V39.768H142.68V48.024H144.68ZM143.68 40.768H172.748V38.768H143.68V40.768ZM171.748 39.768V48.024H173.748V39.768H171.748ZM172.748 47.024H162.6V49.024H172.748V47.024ZM161.6 48.024V101H163.6V48.024H161.6ZM162.6 100H153.828V102H162.6V100ZM176.387 47.68L177.298 48.0938V48.0938L176.387 47.68ZM179.827 42.95L179.169 42.1974L179.167 42.1993L179.827 42.95ZM184.471 40.198L184.137 39.2555L184.127 39.2591L184.471 40.198ZM195.049 40.198L194.705 41.1369L194.715 41.1404L195.049 40.198ZM199.865 42.95L200.541 42.2128L200.525 42.1982L200.509 42.1843L199.865 42.95ZM203.219 47.68L204.13 47.2662L203.219 47.68ZM203.219 93.174L204.125 93.5984L203.219 93.174ZM199.865 97.732L199.207 96.9794L199.205 96.9813L199.865 97.732ZM195.049 100.57L194.715 99.6275L194.705 99.6311L195.049 100.57ZM184.471 100.57L184.127 101.509L184.137 101.512L184.471 100.57ZM179.827 97.732L180.503 96.9948L180.487 96.9802L180.471 96.9663L179.827 97.732ZM176.387 93.174L177.293 92.7496L176.387 93.174ZM185.589 91.282L184.92 92.0253L184.94 92.0428L184.96 92.0592L185.589 91.282ZM193.931 91.282L194.579 92.0439L194.582 92.0413L193.931 91.282ZM193.931 49.572L193.262 50.3153L193.282 50.3328L193.302 50.3492L193.931 49.572ZM185.589 49.572L186.237 50.3339L186.24 50.3313L185.589 49.572ZM176.097 54.216C176.097 51.8672 176.507 49.8339 177.298 48.0938L175.477 47.2662C174.548 49.3101 174.097 51.6342 174.097 54.216H176.097ZM177.298 48.0938C178.104 46.319 179.17 44.8606 180.488 43.7007L179.167 42.1993C177.618 43.562 176.39 45.257 175.477 47.2662L177.298 48.0938ZM180.486 43.7026C181.769 42.5796 183.211 41.7253 184.816 41.1369L184.127 39.2591C182.292 39.932 180.637 40.9124 179.169 42.1974L180.486 43.7026ZM184.806 41.1404C186.482 40.5455 188.147 40.252 189.803 40.252V38.252C187.905 38.252 186.015 38.5891 184.137 39.2556L184.806 41.1404ZM189.803 40.252C191.46 40.252 193.092 40.5454 194.705 41.1369L195.394 39.2591C193.567 38.5893 191.702 38.252 189.803 38.252V40.252ZM194.715 41.1404C196.38 41.7314 197.881 42.5892 199.222 43.7157L200.509 42.1843C198.983 40.9028 197.273 39.9259 195.384 39.2556L194.715 41.1404ZM199.19 43.6872C200.456 44.8478 201.498 46.3104 202.309 48.0938L204.13 47.2662C203.22 45.2656 202.027 43.5749 200.541 42.2128L199.19 43.6872ZM202.309 48.0938C203.1 49.8339 203.509 51.8672 203.509 54.216H205.509C205.509 51.6342 205.059 49.3101 204.13 47.2662L202.309 48.0938ZM203.509 54.216V86.552H205.509V54.216H203.509ZM203.509 86.552C203.509 89.0241 203.097 91.0788 202.314 92.7496L204.125 93.5984C205.062 91.5998 205.509 89.2399 205.509 86.552H203.509ZM202.314 92.7496C201.506 94.4726 200.468 95.876 199.207 96.9794L200.524 98.4846C202.015 97.18 203.212 95.5448 204.125 93.5984L202.314 92.7496ZM199.205 96.9813C197.866 98.1596 196.371 99.04 194.715 99.6276L195.384 101.512C197.283 100.839 198.998 99.8271 200.526 98.4827L199.205 96.9813ZM194.705 99.6311C193.092 100.223 191.46 100.516 189.803 100.516V102.516C191.702 102.516 193.567 102.179 195.394 101.509L194.705 99.6311ZM189.803 100.516C188.147 100.516 186.482 100.222 184.806 99.6276L184.137 101.512C186.015 102.179 187.905 102.516 189.803 102.516V100.516ZM184.816 99.6311C183.221 99.0463 181.785 98.1697 180.503 96.9948L179.152 98.4692C180.622 99.817 182.282 100.832 184.127 101.509L184.816 99.6311ZM180.471 96.9663C179.157 95.8632 178.096 94.4638 177.293 92.7496L175.482 93.5984C176.398 95.5535 177.631 97.1928 179.184 98.4977L180.471 96.9663ZM177.293 92.7496C176.51 91.0788 176.097 89.0241 176.097 86.552H174.097C174.097 89.2399 174.545 91.5998 175.482 93.5984L177.293 92.7496ZM176.097 86.552V54.216H174.097V86.552H176.097ZM182.869 86.552C182.869 88.8463 183.493 90.7405 184.92 92.0253L186.258 90.5387C185.392 89.7595 184.869 88.5003 184.869 86.552H182.869ZM184.96 92.0592C186.349 93.1836 187.978 93.744 189.803 93.744V91.744C188.418 91.744 187.238 91.3297 186.219 90.5048L184.96 92.0592ZM189.803 93.744C191.629 93.744 193.239 93.183 194.579 92.0439L193.284 90.5201C192.33 91.3303 191.189 91.744 189.803 91.744V93.744ZM194.582 92.0413C196.076 90.7605 196.737 88.8609 196.737 86.552H194.737C194.737 88.4857 194.194 89.7395 193.281 90.5227L194.582 92.0413ZM196.737 86.552V54.216H194.737V86.552H196.737ZM196.737 54.216C196.737 51.911 196.078 50.0229 194.561 48.7948L193.302 50.3492C194.193 51.0705 194.737 52.2783 194.737 54.216H196.737ZM194.6 48.8287C193.262 47.6242 191.645 47.024 189.803 47.024V49.024C191.173 49.024 192.307 49.4558 193.262 50.3153L194.6 48.8287ZM189.803 47.024C187.963 47.024 186.326 47.6233 184.939 48.8127L186.24 50.3313C187.26 49.4567 188.433 49.024 189.803 49.024V47.024ZM184.942 48.8101C183.491 50.043 182.869 51.9262 182.869 54.216H184.869C184.869 52.2631 185.394 51.0504 186.237 50.3339L184.942 48.8101ZM182.869 54.216V86.552H184.869V54.216H182.869ZM212.231 101H211.231V102H212.231V101ZM212.231 39.768V38.768H211.231V39.768H212.231ZM220.659 39.768L221.603 39.4398L221.37 38.768H220.659V39.768ZM231.925 72.19L230.98 72.5182L231.213 73.19H231.925V72.19ZM232.097 72.19V73.19H232.809L233.042 72.516L232.097 72.19ZM243.277 39.768V38.768H242.564L242.331 39.442L243.277 39.768ZM251.791 39.768H252.791V38.768H251.791V39.768ZM251.791 101V102H252.791V101H251.791ZM243.019 101H242.019V102H243.019V101ZM243.019 63.762H244.019V62.762H243.019V63.762ZM242.847 63.762V62.762H242.124L241.897 63.4486L242.847 63.762ZM234.161 90.078V91.078H234.884L235.11 90.3914L234.161 90.078ZM229.775 90.078L228.824 90.3886L229.049 91.078H229.775V90.078ZM221.175 63.762L222.125 63.4514L221.9 62.762H221.175V63.762ZM221.003 63.762V62.762H220.003V63.762H221.003ZM221.003 101V102H222.003V101H221.003ZM213.231 101V39.768H211.231V101H213.231ZM212.231 40.768H220.659V38.768H212.231V40.768ZM219.714 40.0962L230.98 72.5182L232.869 71.8618L221.603 39.4398L219.714 40.0962ZM231.925 73.19H232.097V71.19H231.925V73.19ZM233.042 72.516L244.222 40.094L242.331 39.442L231.151 71.864L233.042 72.516ZM243.277 40.768H251.791V38.768H243.277V40.768ZM250.791 39.768V101H252.791V39.768H250.791ZM251.791 100H243.019V102H251.791V100ZM244.019 101V63.762H242.019V101H244.019ZM243.019 62.762H242.847V64.762H243.019V62.762ZM241.897 63.4486L233.211 89.7646L235.11 90.3914L243.796 64.0754L241.897 63.4486ZM234.161 89.078H229.775V91.078H234.161V89.078ZM230.725 89.7674L222.125 63.4514L220.224 64.0726L228.824 90.3886L230.725 89.7674ZM221.175 62.762H221.003V64.762H221.175V62.762ZM220.003 63.762V101H222.003V63.762H220.003ZM221.003 100H212.231V102H221.003V100ZM260.018 101H259.018V102H260.018V101ZM260.018 39.768V38.768H259.018V39.768H260.018ZM286.162 39.768H287.162V38.768H286.162V39.768ZM286.162 48.024V49.024H287.162V48.024H286.162ZM268.79 48.024V47.024H267.79V48.024H268.79ZM268.79 65.998H267.79V66.998H268.79V65.998ZM283.926 65.998H284.926V64.998H283.926V65.998ZM283.926 74.254V75.254H284.926V74.254H283.926ZM268.79 74.254V73.254H267.79V74.254H268.79ZM268.79 92.228H267.79V93.228H268.79V92.228ZM286.162 92.228H287.162V91.228H286.162V92.228ZM286.162 101V102H287.162V101H286.162ZM261.018 101V39.768H259.018V101H261.018ZM260.018 40.768H286.162V38.768H260.018V40.768ZM285.162 39.768V48.024H287.162V39.768H285.162ZM286.162 47.024H268.79V49.024H286.162V47.024ZM267.79 48.024V65.998H269.79V48.024H267.79ZM268.79 66.998H283.926V64.998H268.79V66.998ZM282.926 65.998V74.254H284.926V65.998H282.926ZM283.926 73.254H268.79V75.254H283.926V73.254ZM267.79 74.254V92.228H269.79V74.254H267.79ZM268.79 93.228H286.162V91.228H268.79V93.228ZM285.162 92.228V101H287.162V92.228H285.162ZM286.162 100H260.018V102H286.162V100ZM291.848 101H290.848V102H291.848V101ZM291.848 39.768V38.768H290.848V39.768H291.848ZM300.276 39.768L301.22 39.4398L300.987 38.768H300.276V39.768ZM311.542 72.19L310.597 72.5182L310.831 73.19H311.542V72.19ZM311.714 72.19V73.19H312.427L312.659 72.516L311.714 72.19ZM322.894 39.768V38.768H322.181L321.948 39.442L322.894 39.768ZM331.408 39.768H332.408V38.768H331.408V39.768ZM331.408 101V102H332.408V101H331.408ZM322.636 101H321.636V102H322.636V101ZM322.636 63.762H323.636V62.762H322.636V63.762ZM322.464 63.762V62.762H321.741L321.514 63.4486L322.464 63.762ZM313.778 90.078V91.078H314.501L314.727 90.3914L313.778 90.078ZM309.392 90.078L308.441 90.3886L308.666 91.078H309.392V90.078ZM300.792 63.762L301.742 63.4514L301.517 62.762H300.792V63.762ZM300.62 63.762V62.762H299.62V63.762H300.62ZM300.62 101V102H301.62V101H300.62ZM292.848 101V39.768H290.848V101H292.848ZM291.848 40.768H300.276V38.768H291.848V40.768ZM299.331 40.0962L310.597 72.5182L312.486 71.8618L301.22 39.4398L299.331 40.0962ZM311.542 73.19H311.714V71.19H311.542V73.19ZM312.659 72.516L323.839 40.094L321.948 39.442L310.768 71.864L312.659 72.516ZM322.894 40.768H331.408V38.768H322.894V40.768ZM330.408 39.768V101H332.408V39.768H330.408ZM331.408 100H322.636V102H331.408V100ZM323.636 101V63.762H321.636V101H323.636ZM322.636 62.762H322.464V64.762H322.636V62.762ZM321.514 63.4486L312.828 89.7646L314.727 90.3914L323.413 64.0754L321.514 63.4486ZM313.778 89.078H309.392V91.078H313.778V89.078ZM310.342 89.7674L301.742 63.4514L299.841 64.0726L308.441 90.3886L310.342 89.7674ZM300.792 62.762H300.62V64.762H300.792V62.762ZM299.62 63.762V101H301.62V63.762H299.62ZM300.62 100H291.848V102H300.62V100ZM340.409 47.68L341.319 48.0938V48.0938L340.409 47.68ZM343.849 42.95L343.19 42.1974L343.188 42.1993L343.849 42.95ZM348.493 40.198L348.158 39.2555L348.149 39.2591L348.493 40.198ZM359.071 40.198L358.727 41.1369L358.736 41.1404L359.071 40.198ZM363.887 42.95L364.563 42.2128L364.547 42.1982L364.53 42.1843L363.887 42.95ZM367.241 47.68L368.151 47.2662L367.241 47.68ZM367.241 93.174L368.146 93.5984L367.241 93.174ZM363.887 97.732L363.228 96.9794L363.226 96.9813L363.887 97.732ZM359.071 100.57L358.736 99.6275L358.727 99.6311L359.071 100.57ZM348.493 100.57L348.149 101.509L348.158 101.512L348.493 100.57ZM343.849 97.732L344.525 96.9948L344.509 96.9802L344.492 96.9663L343.849 97.732ZM340.409 93.174L341.314 92.7496L340.409 93.174ZM349.611 91.282L348.942 92.0253L348.961 92.0428L348.982 92.0592L349.611 91.282ZM357.953 91.282L358.6 92.0439L358.604 92.0413L357.953 91.282ZM357.953 49.572L357.284 50.3153L357.303 50.3328L357.324 50.3492L357.953 49.572ZM349.611 49.572L350.258 50.3339L350.262 50.3313L349.611 49.572ZM340.119 54.216C340.119 51.8672 340.528 49.8339 341.319 48.0938L339.498 47.2662C338.569 49.3101 338.119 51.6342 338.119 54.216H340.119ZM341.319 48.0938C342.126 46.319 343.191 44.8606 344.509 43.7007L343.188 42.1993C341.64 43.562 340.412 45.257 339.498 47.2662L341.319 48.0938ZM344.507 43.7026C345.791 42.5796 347.232 41.7253 348.837 41.1369L348.149 39.2591C346.314 39.932 344.659 40.9124 343.19 42.1974L344.507 43.7026ZM348.827 41.1404C350.504 40.5455 352.168 40.252 353.825 40.252V38.252C351.927 38.252 350.037 38.5891 348.158 39.2556L348.827 41.1404ZM353.825 40.252C355.481 40.252 357.113 40.5454 358.727 41.1369L359.415 39.2591C357.588 38.5893 355.723 38.252 353.825 38.252V40.252ZM358.736 41.1404C360.402 41.7314 361.903 42.5892 363.244 43.7157L364.53 42.1843C363.004 40.9028 361.294 39.9259 359.405 39.2556L358.736 41.1404ZM363.211 43.6872C364.477 44.8478 365.52 46.3104 366.33 48.0938L368.151 47.2662C367.242 45.2656 366.048 43.5749 364.563 42.2128L363.211 43.6872ZM366.33 48.0938C367.121 49.8339 367.531 51.8672 367.531 54.216H369.531C369.531 51.6342 369.08 49.3101 368.151 47.2662L366.33 48.0938ZM367.531 54.216V86.552H369.531V54.216H367.531ZM367.531 86.552C367.531 89.0241 367.119 91.0788 366.335 92.7496L368.146 93.5984C369.083 91.5998 369.531 89.2399 369.531 86.552H367.531ZM366.335 92.7496C365.528 94.4726 364.489 95.876 363.228 96.9794L364.545 98.4846C366.036 97.18 367.234 95.5448 368.146 93.5984L366.335 92.7496ZM363.226 96.9813C361.887 98.1596 360.392 99.04 358.736 99.6276L359.405 101.512C361.304 100.839 363.02 99.8271 364.547 98.4827L363.226 96.9813ZM358.727 99.6311C357.113 100.223 355.481 100.516 353.825 100.516V102.516C355.723 102.516 357.588 102.179 359.415 101.509L358.727 99.6311ZM353.825 100.516C352.168 100.516 350.504 100.222 348.827 99.6276L348.158 101.512C350.037 102.179 351.927 102.516 353.825 102.516V100.516ZM348.837 99.6311C347.242 99.0463 345.806 98.1697 344.525 96.9948L343.173 98.4692C344.643 99.817 346.304 100.832 348.149 101.509L348.837 99.6311ZM344.492 96.9663C343.179 95.8632 342.118 94.4638 341.314 92.7496L339.503 93.5984C340.42 95.5535 341.652 97.1928 343.206 98.4977L344.492 96.9663ZM341.314 92.7496C340.531 91.0788 340.119 89.0241 340.119 86.552H338.119C338.119 89.2399 338.567 91.5998 339.503 93.5984L341.314 92.7496ZM340.119 86.552V54.216H338.119V86.552H340.119ZM346.891 86.552C346.891 88.8463 347.514 90.7405 348.942 92.0253L350.28 90.5387C349.414 89.7595 348.891 88.5003 348.891 86.552H346.891ZM348.982 92.0592C350.371 93.1836 351.999 93.744 353.825 93.744V91.744C352.44 91.744 351.259 91.3297 350.24 90.5048L348.982 92.0592ZM353.825 93.744C355.65 93.744 357.26 93.183 358.6 92.0439L357.305 90.5201C356.352 91.3303 355.21 91.744 353.825 91.744V93.744ZM358.604 92.0413C360.098 90.7605 360.759 88.8609 360.759 86.552H358.759C358.759 88.4857 358.216 89.7395 357.302 90.5227L358.604 92.0413ZM360.759 86.552V54.216H358.759V86.552H360.759ZM360.759 54.216C360.759 51.911 360.099 50.0229 358.582 48.7948L357.324 50.3492C358.215 51.0705 358.759 52.2783 358.759 54.216H360.759ZM358.622 48.8287C357.283 47.6242 355.666 47.024 353.825 47.024V49.024C355.194 49.024 356.329 49.4558 357.284 50.3153L358.622 48.8287ZM353.825 47.024C351.984 47.024 350.348 47.6233 348.96 48.8127L350.262 50.3313C351.282 49.4567 352.455 49.024 353.825 49.024V47.024ZM348.963 48.8101C347.513 50.043 346.891 51.9262 346.891 54.216H348.891C348.891 52.2631 349.416 51.0504 350.258 50.3339L348.963 48.8101ZM346.891 54.216V86.552H348.891V54.216H346.891ZM404.632 57.398V58.398H405.632V57.398H404.632ZM395.86 57.398H394.86V58.398H395.86V57.398ZM394.398 50.26L393.546 50.7841L393.558 50.8035L393.571 50.8223L394.398 50.26ZM386.744 48.712L386.22 47.8603L386.744 48.712ZM384.938 50.432L384.106 49.8773L384.096 49.8924L384.086 49.9079L384.938 50.432ZM383.992 53.012L384.975 53.1963L384.977 53.1858L383.992 53.012ZM383.82 58.946L382.823 59.0172L382.825 59.0525L382.83 59.0874L383.82 58.946ZM385.97 62.73L385.382 63.5387L385.398 63.5507L385.415 63.562L385.97 62.73ZM388.722 64.106L388.351 65.0345L388.353 65.0353L388.722 64.106ZM395.43 66.772L395.061 67.7014L395.073 67.706L395.43 66.772ZM400.16 69.438L399.509 70.1973L399.52 70.2064L399.531 70.2152L400.16 69.438ZM402.998 72.878L403.907 72.4613L403.896 72.4381L403.885 72.4154L402.998 72.878ZM404.288 77.608L403.296 77.736L403.297 77.7402L404.288 77.608ZM403.858 90.766L404.831 90.9965L404.832 90.9909L403.858 90.766ZM401.364 96.356L402.164 96.956L402.168 96.9512L401.364 96.356ZM396.634 100.14L397.06 101.045L396.634 100.14ZM383.562 100.398L383.186 101.324L383.562 100.398ZM378.832 97.302L378.125 98.0091L378.832 97.302ZM375.65 92.744L374.728 93.1307L374.735 93.149L374.744 93.1669L375.65 92.744ZM374.532 83.714V82.714H373.532V83.714H374.532ZM383.304 83.714H384.304V82.714H383.304V83.714ZM384.68 90.852L383.859 91.4231L383.873 91.4436L383.889 91.4634L384.68 90.852ZM392.936 92.142L393.383 93.0364L393.395 93.0305L393.407 93.0244L392.936 92.142ZM394.914 90.25L395.782 90.7461L394.914 90.25ZM395.688 87.412L394.693 87.3125L394.691 87.3359L394.689 87.3594L395.688 87.412ZM395.688 79.672L396.682 79.5616V79.5616L395.688 79.672ZM395 77.178L395.878 76.6991L395.862 76.6696L395.844 76.6411L395 77.178ZM393.366 75.63L392.829 76.4737L392.845 76.484L392.862 76.4938L393.366 75.63ZM390.786 74.34L391.174 73.4183L391.166 73.4151L390.786 74.34ZM384.508 71.76L384.888 70.8351L384.887 70.8345L384.508 71.76ZM376.854 65.654L375.956 66.0932L375.962 66.1053L375.968 66.1173L376.854 65.654ZM375.908 49.486L376.864 49.7782L375.908 49.486ZM378.746 44.154L379.509 44.7999L379.517 44.7912L379.524 44.7823L378.746 44.154ZM383.304 40.628L383.728 41.5335L383.74 41.5278L383.304 40.628ZM395.946 40.456L395.534 41.3674L395.545 41.3722L395.946 40.456ZM400.676 43.638L401.398 42.9461L401.391 42.9384L401.383 42.9309L400.676 43.638ZM404.632 56.398H395.86V58.398H404.632V56.398ZM396.86 57.398V55.42H394.86V57.398H396.86ZM396.86 55.42C396.86 53.2453 396.329 51.3219 395.225 49.6977L393.571 50.8223C394.416 52.0648 394.86 53.5814 394.86 55.42H396.86ZM395.25 49.7359C394.099 47.8665 392.141 47.024 389.668 47.024V49.024C391.667 49.024 392.862 49.6722 393.546 50.7841L395.25 49.7359ZM389.668 47.024C388.346 47.024 387.171 47.2748 386.22 47.8603L387.268 49.5637C387.807 49.2319 388.582 49.024 389.668 49.024V47.024ZM386.22 47.8603C385.359 48.3901 384.649 49.0623 384.106 49.8773L385.77 50.9867C386.144 50.4257 386.638 49.9512 387.268 49.5637L386.22 47.8603ZM384.086 49.9079C383.554 50.7737 383.198 51.7556 383.007 52.8382L384.977 53.1858C385.13 52.3191 385.405 51.581 385.79 50.9561L384.086 49.9079ZM383.009 52.8277C382.825 53.8118 382.734 54.8486 382.734 55.936H384.734C384.734 54.9594 384.815 54.0469 384.975 53.1963L383.009 52.8277ZM382.734 55.936C382.734 57.1534 382.763 58.1824 382.823 59.0172L384.817 58.8748C384.762 58.1043 384.734 57.1266 384.734 55.936H382.734ZM382.83 59.0874C382.959 59.9933 383.222 60.8267 383.63 61.5749L385.386 60.6171C385.106 60.104 384.91 59.5041 384.81 58.8046L382.83 59.0874ZM383.63 61.5749C384.051 62.3464 384.642 63.0005 385.382 63.5387L386.558 61.9213C386.037 61.5422 385.653 61.1069 385.386 60.6171L383.63 61.5749ZM385.415 63.562C386.182 64.0729 387.168 64.5614 388.351 65.0345L389.093 63.1775C387.983 62.7333 387.134 62.3044 386.525 61.8979L385.415 63.562ZM388.353 65.0353L395.061 67.7013L395.799 65.8427L389.091 63.1767L388.353 65.0353ZM395.073 67.706C396.947 68.4226 398.415 69.2594 399.509 70.1973L400.811 68.6787C399.497 67.5526 397.812 66.612 395.787 65.8379L395.073 67.706ZM399.531 70.2152C400.633 71.1074 401.489 72.1483 402.111 73.3406L403.885 72.4154C403.131 70.9703 402.095 69.7179 400.789 68.6608L399.531 70.2152ZM402.089 73.2947C402.671 74.5641 403.077 76.0407 403.296 77.736L405.28 77.48C405.04 75.6207 404.587 73.9439 403.907 72.4613L402.089 73.2947ZM403.297 77.7402C403.519 79.406 403.632 81.3383 403.632 83.542H405.632C405.632 81.2737 405.516 79.25 405.279 77.4758L403.297 77.7402ZM403.632 83.542C403.632 86.0555 403.381 88.3873 402.884 90.5411L404.832 90.9909C405.367 88.6727 405.632 86.1885 405.632 83.542H403.632ZM402.885 90.5355C402.395 92.6035 401.615 94.3378 400.56 95.7608L402.168 96.9512C403.407 95.2782 404.289 93.2858 404.831 90.9965L402.885 90.5355ZM400.564 95.756C399.465 97.2212 398.021 98.3821 396.208 99.2352L397.06 101.045C399.146 100.063 400.855 98.7015 402.164 96.956L400.564 95.756ZM396.208 99.2352C394.426 100.074 392.201 100.516 389.496 100.516V102.516C392.41 102.516 394.943 102.041 397.06 101.045L396.208 99.2352ZM389.496 100.516C387.494 100.516 385.645 100.165 383.938 99.4715L383.186 101.324C385.148 102.122 387.255 102.516 389.496 102.516V100.516ZM383.938 99.4715C382.22 98.7733 380.758 97.8133 379.539 96.5949L378.125 98.0091C379.544 99.428 381.235 100.532 383.186 101.324L383.938 99.4715ZM379.539 96.5949C378.304 95.3601 377.31 93.9374 376.556 92.3211L374.744 93.1669C375.595 94.9906 376.722 96.6065 378.125 98.0091L379.539 96.5949ZM376.572 92.3573C375.882 90.7109 375.532 88.9227 375.532 86.982H373.532C373.532 89.1693 373.928 91.2224 374.728 93.1307L376.572 92.3573ZM375.532 86.982V83.714H373.532V86.982H375.532ZM374.532 84.714H383.304V82.714H374.532V84.714ZM382.304 83.714V86.466H384.304V83.714H382.304ZM382.304 86.466C382.304 88.2756 382.825 89.9369 383.859 91.4231L385.501 90.2809C384.7 89.1298 384.304 87.867 384.304 86.466H382.304ZM383.889 91.4634C385.121 93.0582 387.082 93.744 389.496 93.744V91.744C387.438 91.744 386.188 91.1685 385.471 90.2406L383.889 91.4634ZM389.496 93.744C391.052 93.744 392.379 93.5386 393.383 93.0364L392.489 91.2476C391.888 91.5481 390.922 91.744 389.496 91.744V93.744ZM393.407 93.0244C394.423 92.482 395.225 91.7215 395.782 90.7461L394.046 89.7539C393.686 90.3838 393.169 90.8846 392.465 91.2596L393.407 93.0244ZM395.782 90.7461C396.331 89.7855 396.623 88.682 396.687 87.4646L394.689 87.3594C394.639 88.3207 394.414 89.1092 394.046 89.7539L395.782 90.7461ZM396.683 87.5115C396.802 86.3262 396.86 85.0311 396.86 83.628H394.86C394.86 84.9769 394.804 86.2045 394.693 87.3125L396.683 87.5115ZM396.86 83.628C396.86 82.0033 396.802 80.6443 396.682 79.5616L394.694 79.7824C394.803 80.7637 394.86 82.042 394.86 83.628H396.86ZM396.682 79.5616C396.559 78.4532 396.305 77.4828 395.878 76.6991L394.122 77.6569C394.383 78.1346 394.588 78.8268 394.694 79.7824L396.682 79.5616ZM395.844 76.6411C395.351 75.8672 394.686 75.2425 393.87 74.7662L392.862 76.4938C393.422 76.8202 393.846 77.2275 394.156 77.7149L395.844 76.6411ZM393.903 74.7863C393.206 74.3428 392.289 73.8878 391.174 73.4184L390.398 75.2616C391.462 75.7095 392.265 76.1145 392.829 76.4737L393.903 74.7863ZM391.166 73.4151L384.888 70.8351L384.128 72.6849L390.406 75.2649L391.166 73.4151ZM384.887 70.8345C381.228 69.3376 378.91 67.4294 377.74 65.1907L375.968 66.1173C377.435 68.9239 380.22 71.0864 384.129 72.6855L384.887 70.8345ZM377.752 65.2148C376.577 62.8096 375.962 59.7601 375.962 56.022H373.962C373.962 59.9666 374.609 63.3384 375.956 66.0932L377.752 65.2148ZM375.962 56.022C375.962 53.8215 376.264 51.7418 376.864 49.7782L374.952 49.1938C374.29 51.3582 373.962 53.6358 373.962 56.022H375.962ZM376.864 49.7782C377.46 47.8303 378.345 46.1766 379.509 44.7999L377.983 43.5081C376.625 45.1127 375.618 47.0137 374.952 49.1938L376.864 49.7782ZM379.524 44.7823C380.627 43.4164 382.023 42.3329 383.728 41.5335L382.88 39.7225C380.916 40.6431 379.273 41.9103 377.968 43.5257L379.524 44.7823ZM383.74 41.5278C385.469 40.6897 387.549 40.252 390.012 40.252V38.252C387.315 38.252 384.923 38.7317 382.868 39.7282L383.74 41.5278ZM390.012 40.252C392.065 40.252 393.901 40.6296 395.534 41.3674L396.358 39.5446C394.437 38.677 392.316 38.252 390.012 38.252V40.252ZM395.545 41.3722C397.274 42.1286 398.745 43.1209 399.969 44.3451L401.383 42.9309C399.97 41.5177 398.287 40.3888 396.347 39.5398L395.545 41.3722ZM399.954 44.3299C402.427 46.9105 403.632 49.821 403.632 53.098H405.632C405.632 49.2657 404.2 45.8695 401.398 42.9461L399.954 44.3299ZM403.632 53.098V57.398H405.632V53.098H403.632Z" fill="#295C22"/>
</g>
<g filter="url(#filter2_d)">
<path d="M444.46 84.542V88.326C444.46 90.218 444.087 92.024 443.342 93.744C442.654 95.4067 441.679 96.8973 440.418 98.216C439.156 99.5347 437.666 100.595 435.946 101.398C434.283 102.143 432.477 102.516 430.528 102.516C428.865 102.516 427.174 102.287 425.454 101.828C423.734 101.369 422.186 100.567 420.81 99.42C419.434 98.2733 418.287 96.8113 417.37 95.034C416.51 93.1993 416.08 90.8773 416.08 88.068V54.356C416.08 52.3493 416.424 50.486 417.112 48.766C417.8 47.046 418.774 45.5553 420.036 44.294C421.297 43.0327 422.788 42.058 424.508 41.37C426.285 40.6247 428.234 40.252 430.356 40.252C434.484 40.252 437.838 41.5993 440.418 44.294C441.679 45.6127 442.654 47.1893 443.342 49.024C444.087 50.8013 444.46 52.7507 444.46 54.872V58.312H435.688V55.388C435.688 53.668 435.2 52.1773 434.226 50.916C433.251 49.6547 431.932 49.024 430.27 49.024C428.091 49.024 426.629 49.712 425.884 51.088C425.196 52.4067 424.852 54.098 424.852 56.162V87.466C424.852 89.2433 425.224 90.734 425.97 91.938C426.772 93.142 428.177 93.744 430.184 93.744C430.757 93.744 431.359 93.658 431.99 93.486C432.678 93.2567 433.308 92.9127 433.882 92.454C434.398 91.9953 434.828 91.3647 435.172 90.562C435.516 89.7593 435.688 88.756 435.688 87.552V84.542H444.46ZM451.101 55.216C451.101 52.7507 451.531 50.572 452.391 48.68C453.251 46.788 454.398 45.2113 455.831 43.95C457.207 42.746 458.755 41.8287 460.475 41.198C462.253 40.5673 464.03 40.252 465.807 40.252C467.585 40.252 469.333 40.5673 471.053 41.198C472.831 41.8287 474.436 42.746 475.869 43.95C477.245 45.2113 478.363 46.788 479.223 48.68C480.083 50.572 480.513 52.7507 480.513 55.216V87.552C480.513 90.132 480.083 92.3393 479.223 94.174C478.363 96.0087 477.245 97.528 475.869 98.732C474.436 99.9933 472.831 100.939 471.053 101.57C469.333 102.201 467.585 102.516 465.807 102.516C464.03 102.516 462.253 102.201 460.475 101.57C458.755 100.939 457.207 99.9933 455.831 98.732C454.398 97.528 453.251 96.0087 452.391 94.174C451.531 92.3393 451.101 90.132 451.101 87.552V55.216ZM459.873 87.552C459.873 89.6733 460.447 91.25 461.593 92.282C462.797 93.2567 464.202 93.744 465.807 93.744C467.413 93.744 468.789 93.2567 469.935 92.282C471.139 91.25 471.741 89.6733 471.741 87.552V55.216C471.741 53.0947 471.139 51.5467 469.935 50.572C468.789 49.54 467.413 49.024 465.807 49.024C464.202 49.024 462.797 49.54 461.593 50.572C460.447 51.5467 459.873 53.0947 459.873 55.216V87.552ZM487.89 102V40.768H496.318L509.562 77.662H509.734V40.768H518.506V102H510.25L496.834 65.192H496.662V102H487.89ZM554.311 84.542V88.326C554.311 90.218 553.939 92.024 553.193 93.744C552.505 95.4067 551.531 96.8973 550.269 98.216C549.008 99.5347 547.517 100.595 545.797 101.398C544.135 102.143 542.329 102.516 540.379 102.516C538.717 102.516 537.025 102.287 535.305 101.828C533.585 101.369 532.037 100.567 530.661 99.42C529.285 98.2733 528.139 96.8113 527.221 95.034C526.361 93.1993 525.931 90.8773 525.931 88.068V54.356C525.931 52.3493 526.275 50.486 526.963 48.766C527.651 47.046 528.626 45.5553 529.887 44.294C531.149 43.0327 532.639 42.058 534.359 41.37C536.137 40.6247 538.086 40.252 540.207 40.252C544.335 40.252 547.689 41.5993 550.269 44.294C551.531 45.6127 552.505 47.1893 553.193 49.024C553.939 50.8013 554.311 52.7507 554.311 54.872V58.312H545.539V55.388C545.539 53.668 545.052 52.1773 544.077 50.916C543.103 49.6547 541.784 49.024 540.121 49.024C537.943 49.024 536.481 49.712 535.735 51.088C535.047 52.4067 534.703 54.098 534.703 56.162V87.466C534.703 89.2433 535.076 90.734 535.821 91.938C536.624 93.142 538.029 93.744 540.035 93.744C540.609 93.744 541.211 93.658 541.841 93.486C542.529 93.2567 543.16 92.9127 543.733 92.454C544.249 91.9953 544.679 91.3647 545.023 90.562C545.367 89.7593 545.539 88.756 545.539 87.552V84.542H554.311ZM561.727 102V40.768H570.499V102H561.727ZM579.022 102V40.768H605.166V49.024H587.794V66.998H602.93V75.254H587.794V93.228H605.166V102H579.022ZM610.508 102V40.768H618.936L632.18 77.662H632.352V40.768H641.124V102H632.868L619.452 65.192H619.28V102H610.508ZM676.929 84.542V88.326C676.929 90.218 676.556 92.024 675.811 93.744C675.123 95.4067 674.148 96.8973 672.887 98.216C671.625 99.5347 670.135 100.595 668.415 101.398C666.752 102.143 664.946 102.516 662.997 102.516C661.334 102.516 659.643 102.287 657.923 101.828C656.203 101.369 654.655 100.567 653.279 99.42C651.903 98.2733 650.756 96.8113 649.839 95.034C648.979 93.1993 648.549 90.8773 648.549 88.068V54.356C648.549 52.3493 648.893 50.486 649.581 48.766C650.269 47.046 651.243 45.5553 652.505 44.294C653.766 43.0327 655.257 42.058 656.977 41.37C658.754 40.6247 660.703 40.252 662.825 40.252C666.953 40.252 670.307 41.5993 672.887 44.294C674.148 45.6127 675.123 47.1893 675.811 49.024C676.556 50.8013 676.929 52.7507 676.929 54.872V58.312H668.157V55.388C668.157 53.668 667.669 52.1773 666.695 50.916C665.72 49.6547 664.401 49.024 662.739 49.024C660.56 49.024 659.098 49.712 658.353 51.088C657.665 52.4067 657.321 54.098 657.321 56.162V87.466C657.321 89.2433 657.693 90.734 658.439 91.938C659.241 93.142 660.646 93.744 662.653 93.744C663.226 93.744 663.828 93.658 664.459 93.486C665.147 93.2567 665.777 92.9127 666.351 92.454C666.867 91.9953 667.297 91.3647 667.641 90.562C667.985 89.7593 668.157 88.756 668.157 87.552V84.542H676.929ZM684.344 102V40.768H693.116V102H684.344ZM719.355 80.586L715.055 58.398H714.883L710.583 80.586H719.355ZM697.683 102L711.357 40.768H718.667L732.341 102H723.569L720.989 88.842H709.035L706.455 102H697.683Z" fill="white"/>
<path d="M444.46 84.542H445.46V83.542H444.46V84.542ZM443.342 93.744L442.424 93.3464L442.421 93.354L442.418 93.3616L443.342 93.744ZM440.418 98.216L441.14 98.9072L440.418 98.216ZM435.946 101.398L436.355 102.311L436.362 102.307L436.369 102.304L435.946 101.398ZM425.454 101.828L425.196 102.794L425.454 101.828ZM420.81 99.42L420.17 100.188L420.81 99.42ZM417.37 95.034L416.464 95.4584L416.472 95.4757L416.481 95.4926L417.37 95.034ZM417.112 48.766L418.04 49.1374V49.1374L417.112 48.766ZM420.036 44.294L420.743 45.0011V45.0011L420.036 44.294ZM424.508 41.37L424.879 42.2985L424.887 42.2954L424.895 42.2922L424.508 41.37ZM440.418 44.294L441.14 43.6028L441.14 43.6024L440.418 44.294ZM443.342 49.024L442.405 49.3751L442.412 49.3931L442.42 49.4107L443.342 49.024ZM444.46 58.312V59.312H445.46V58.312H444.46ZM435.688 58.312H434.688V59.312H435.688V58.312ZM434.226 50.916L435.017 50.3045L434.226 50.916ZM425.884 51.088L425.004 50.6117L425.001 50.6185L424.997 50.6254L425.884 51.088ZM425.97 91.938L425.12 92.4644L425.128 92.4787L425.138 92.4927L425.97 91.938ZM431.99 93.486L432.253 94.4508L432.28 94.4435L432.306 94.4347L431.99 93.486ZM433.882 92.454L434.506 93.2349L434.527 93.2187L434.546 93.2014L433.882 92.454ZM435.172 90.562L434.253 90.1681V90.1681L435.172 90.562ZM435.688 84.542V83.542H434.688V84.542H435.688ZM443.46 84.542V88.326H445.46V84.542H443.46ZM443.46 88.326C443.46 90.0825 443.115 91.7531 442.424 93.3464L444.259 94.1416C445.06 92.2949 445.46 90.3535 445.46 88.326H443.46ZM442.418 93.3616C441.778 94.9081 440.872 96.2944 439.695 97.5248L441.14 98.9072C442.486 97.5003 443.53 95.9052 444.266 94.1264L442.418 93.3616ZM439.695 97.5248C438.523 98.7502 437.135 99.7395 435.523 100.492L436.369 102.304C438.196 101.451 439.79 100.319 441.14 98.9072L439.695 97.5248ZM435.537 100.485C434.012 101.169 432.346 101.516 430.528 101.516V103.516C432.608 103.516 434.555 103.117 436.355 102.311L435.537 100.485ZM430.528 101.516C428.958 101.516 427.353 101.3 425.711 100.862L425.196 102.794C426.994 103.274 428.772 103.516 430.528 103.516V101.516ZM425.711 100.862C424.133 100.441 422.715 99.706 421.45 98.6518L420.17 100.188C421.656 101.427 423.335 102.298 425.196 102.794L425.711 100.862ZM421.45 98.6518C420.188 97.6001 419.122 96.2478 418.258 94.5754L416.481 95.4926C417.453 97.3749 418.68 98.9465 420.17 100.188L421.45 98.6518ZM418.275 94.6096C417.497 92.9487 417.08 90.7839 417.08 88.068H415.08C415.08 90.9708 415.523 93.45 416.464 95.4584L418.275 94.6096ZM417.08 88.068V54.356H415.08V88.068H417.08ZM417.08 54.356C417.08 52.4659 417.403 50.7298 418.04 49.1374L416.183 48.3946C415.444 50.2422 415.08 52.2328 415.08 54.356H417.08ZM418.04 49.1374C418.68 47.5382 419.581 46.163 420.743 45.0011L419.329 43.5869C417.968 44.9477 416.92 46.5538 416.183 48.3946L418.04 49.1374ZM420.743 45.0011C421.905 43.8392 423.28 42.9382 424.879 42.2985L424.136 40.4415C422.296 41.1778 420.689 42.2261 419.329 43.5869L420.743 45.0011ZM424.895 42.2922C426.538 41.6032 428.354 41.252 430.356 41.252V39.252C428.115 39.252 426.033 39.6462 424.121 40.4478L424.895 42.2922ZM430.356 41.252C434.243 41.252 437.325 42.5099 439.695 44.9856L441.14 43.6024C438.35 40.6887 434.724 39.252 430.356 39.252V41.252ZM439.695 44.9852C440.856 46.1991 441.761 47.6576 442.405 49.3751L444.278 48.6729C443.546 46.721 442.502 45.0262 441.14 43.6028L439.695 44.9852ZM442.42 49.4107C443.109 51.0538 443.46 52.87 443.46 54.872H445.46C445.46 52.6313 445.066 50.5489 444.264 48.6373L442.42 49.4107ZM443.46 54.872V58.312H445.46V54.872H443.46ZM444.46 57.312H435.688V59.312H444.46V57.312ZM436.688 58.312V55.388H434.688V58.312H436.688ZM436.688 55.388C436.688 53.4653 436.138 51.7552 435.017 50.3045L433.434 51.5274C434.263 52.5995 434.688 53.8707 434.688 55.388H436.688ZM435.017 50.3045C433.844 48.7861 432.227 48.024 430.27 48.024V50.024C431.638 50.024 432.658 50.5232 433.434 51.5274L435.017 50.3045ZM430.27 48.024C427.887 48.024 425.991 48.7912 425.004 50.6117L426.763 51.5643C427.268 50.6328 428.295 50.024 430.27 50.024V48.024ZM424.997 50.6254C424.211 52.1314 423.852 53.996 423.852 56.162H425.852C425.852 54.2 426.18 52.6819 426.77 51.5506L424.997 50.6254ZM423.852 56.162V87.466H425.852V56.162H423.852ZM423.852 87.466C423.852 89.3822 424.254 91.0665 425.12 92.4644L426.82 91.4116C426.195 90.4015 425.852 89.1045 425.852 87.466H423.852ZM425.138 92.4927C426.192 94.0748 427.984 94.744 430.184 94.744V92.744C428.37 92.744 427.352 92.2092 426.802 91.3833L425.138 92.4927ZM430.184 94.744C430.857 94.744 431.548 94.6429 432.253 94.4508L431.727 92.5212C431.17 92.6731 430.657 92.744 430.184 92.744V94.744ZM432.306 94.4347C433.107 94.1676 433.842 93.7663 434.506 93.2349L433.257 91.6731C432.775 92.059 432.248 92.3458 431.674 92.5373L432.306 94.4347ZM434.546 93.2014C435.197 92.6228 435.704 91.859 436.091 90.9559L434.253 90.1681C433.952 90.8703 433.598 91.3679 433.217 91.7066L434.546 93.2014ZM436.091 90.9559C436.504 89.9912 436.688 88.8434 436.688 87.552H434.688C434.688 88.6686 434.527 89.5275 434.253 90.1681L436.091 90.9559ZM436.688 87.552V84.542H434.688V87.552H436.688ZM435.688 85.542H444.46V83.542H435.688V85.542ZM452.391 48.68L453.302 49.0938V49.0938L452.391 48.68ZM455.831 43.95L455.173 43.1974L455.171 43.1993L455.831 43.95ZM460.475 41.198L460.141 40.2555L460.131 40.2591L460.475 41.198ZM471.053 41.198L470.709 42.1369L470.719 42.1404L471.053 41.198ZM475.869 43.95L476.545 43.2128L476.529 43.1982L476.512 43.1843L475.869 43.95ZM479.223 48.68L480.134 48.2662L479.223 48.68ZM479.223 94.174L480.129 94.5984L479.223 94.174ZM475.869 98.732L475.211 97.9794L475.209 97.9813L475.869 98.732ZM471.053 101.57L470.719 100.628L470.709 100.631L471.053 101.57ZM460.475 101.57L460.131 102.509L460.141 102.512L460.475 101.57ZM455.831 98.732L456.507 97.9948L456.491 97.9802L456.474 97.9663L455.831 98.732ZM452.391 94.174L453.297 93.7496L452.391 94.174ZM461.593 92.282L460.924 93.0253L460.944 93.0428L460.964 93.0592L461.593 92.282ZM469.935 92.282L470.583 93.0439L470.586 93.0413L469.935 92.282ZM469.935 50.572L469.266 51.3153L469.286 51.3328L469.306 51.3492L469.935 50.572ZM461.593 50.572L462.241 51.3339L462.244 51.3313L461.593 50.572ZM452.101 55.216C452.101 52.8672 452.511 50.8339 453.302 49.0938L451.481 48.2662C450.552 50.3101 450.101 52.6342 450.101 55.216H452.101ZM453.302 49.0938C454.108 47.319 455.174 45.8606 456.492 44.7007L455.171 43.1993C453.622 44.562 452.394 46.257 451.481 48.2662L453.302 49.0938ZM456.49 44.7026C457.773 43.5796 459.215 42.7253 460.82 42.1369L460.131 40.2591C458.296 40.932 456.641 41.9124 455.173 43.1974L456.49 44.7026ZM460.81 42.1404C462.486 41.5455 464.151 41.252 465.807 41.252V39.252C463.909 39.252 462.019 39.5891 460.141 40.2556L460.81 42.1404ZM465.807 41.252C467.464 41.252 469.096 41.5454 470.709 42.1369L471.398 40.2591C469.571 39.5893 467.706 39.252 465.807 39.252V41.252ZM470.719 42.1404C472.384 42.7314 473.885 43.5892 475.226 44.7157L476.512 43.1843C474.987 41.9028 473.277 40.9259 471.388 40.2556L470.719 42.1404ZM475.194 44.6872C476.46 45.8478 477.502 47.3104 478.313 49.0938L480.134 48.2662C479.224 46.2656 478.031 44.5749 476.545 43.2128L475.194 44.6872ZM478.313 49.0938C479.104 50.8339 479.513 52.8672 479.513 55.216H481.513C481.513 52.6342 481.063 50.3101 480.134 48.2662L478.313 49.0938ZM479.513 55.216V87.552H481.513V55.216H479.513ZM479.513 87.552C479.513 90.0241 479.101 92.0788 478.318 93.7496L480.129 94.5984C481.066 92.5998 481.513 90.2399 481.513 87.552H479.513ZM478.318 93.7496C477.51 95.4726 476.472 96.876 475.211 97.9794L476.528 99.4846C478.019 98.18 479.216 96.5448 480.129 94.5984L478.318 93.7496ZM475.209 97.9813C473.87 99.1596 472.375 100.04 470.719 100.628L471.388 102.512C473.286 101.839 475.002 100.827 476.53 99.4827L475.209 97.9813ZM470.709 100.631C469.096 101.223 467.464 101.516 465.807 101.516V103.516C467.706 103.516 469.571 103.179 471.398 102.509L470.709 100.631ZM465.807 101.516C464.151 101.516 462.486 101.222 460.81 100.628L460.141 102.512C462.019 103.179 463.909 103.516 465.807 103.516V101.516ZM460.82 100.631C459.224 100.046 457.789 99.1697 456.507 97.9948L455.156 99.4692C456.626 100.817 458.286 101.832 460.131 102.509L460.82 100.631ZM456.474 97.9663C455.161 96.8632 454.1 95.4638 453.297 93.7496L451.486 94.5984C452.402 96.5535 453.635 98.1928 455.188 99.4977L456.474 97.9663ZM453.297 93.7496C452.514 92.0788 452.101 90.0241 452.101 87.552H450.101C450.101 90.2399 450.549 92.5998 451.486 94.5984L453.297 93.7496ZM452.101 87.552V55.216H450.101V87.552H452.101ZM458.873 87.552C458.873 89.8463 459.497 91.7405 460.924 93.0253L462.262 91.5387C461.396 90.7595 460.873 89.5003 460.873 87.552H458.873ZM460.964 93.0592C462.353 94.1836 463.982 94.744 465.807 94.744V92.744C464.422 92.744 463.242 92.3297 462.222 91.5048L460.964 93.0592ZM465.807 94.744C467.633 94.744 469.243 94.183 470.583 93.0439L469.288 91.5201C468.334 92.3303 467.192 92.744 465.807 92.744V94.744ZM470.586 93.0413C472.08 91.7605 472.741 89.8609 472.741 87.552H470.741C470.741 89.4857 470.198 90.7395 469.284 91.5227L470.586 93.0413ZM472.741 87.552V55.216H470.741V87.552H472.741ZM472.741 55.216C472.741 52.911 472.082 51.0229 470.564 49.7948L469.306 51.3492C470.197 52.0705 470.741 53.2783 470.741 55.216H472.741ZM470.604 49.8287C469.266 48.6242 467.649 48.024 465.807 48.024V50.024C467.177 50.024 468.311 50.4558 469.266 51.3153L470.604 49.8287ZM465.807 48.024C463.966 48.024 462.33 48.6233 460.942 49.8127L462.244 51.3313C463.264 50.4567 464.437 50.024 465.807 50.024V48.024ZM460.946 49.8101C459.495 51.043 458.873 52.9262 458.873 55.216H460.873C460.873 53.2631 461.398 52.0504 462.241 51.3339L460.946 49.8101ZM458.873 55.216V87.552H460.873V55.216H458.873ZM487.89 102H486.89V103H487.89V102ZM487.89 40.768V39.768H486.89V40.768H487.89ZM496.318 40.768L497.26 40.4301L497.022 39.768H496.318V40.768ZM509.562 77.662L508.621 77.9999L508.859 78.662H509.562V77.662ZM509.734 77.662V78.662H510.734V77.662H509.734ZM509.734 40.768V39.768H508.734V40.768H509.734ZM518.506 40.768H519.506V39.768H518.506V40.768ZM518.506 102V103H519.506V102H518.506ZM510.25 102L509.311 102.342L509.551 103H510.25V102ZM496.834 65.192L497.774 64.8495L497.534 64.192H496.834V65.192ZM496.662 65.192V64.192H495.662V65.192H496.662ZM496.662 102V103H497.662V102H496.662ZM488.89 102V40.768H486.89V102H488.89ZM487.89 41.768H496.318V39.768H487.89V41.768ZM495.377 41.1059L508.621 77.9999L510.504 77.3241L497.26 40.4301L495.377 41.1059ZM509.562 78.662H509.734V76.662H509.562V78.662ZM510.734 77.662V40.768H508.734V77.662H510.734ZM509.734 41.768H518.506V39.768H509.734V41.768ZM517.506 40.768V102H519.506V40.768H517.506ZM518.506 101H510.25V103H518.506V101ZM511.19 101.658L497.774 64.8495L495.895 65.5344L509.311 102.342L511.19 101.658ZM496.834 64.192H496.662V66.192H496.834V64.192ZM495.662 65.192V102H497.662V65.192H495.662ZM496.662 101H487.89V103H496.662V101ZM554.311 84.542H555.311V83.542H554.311V84.542ZM553.193 93.744L552.276 93.3464L552.272 93.354L552.269 93.3616L553.193 93.744ZM550.269 98.216L550.992 98.9072L550.269 98.216ZM545.797 101.398L546.206 102.311L546.213 102.307L546.22 102.304L545.797 101.398ZM535.305 101.828L535.048 102.794L535.305 101.828ZM530.661 99.42L530.021 100.188L530.661 99.42ZM527.221 95.034L526.316 95.4584L526.324 95.4757L526.333 95.4926L527.221 95.034ZM526.963 48.766L527.892 49.1374V49.1374L526.963 48.766ZM529.887 44.294L530.594 45.0011V45.0011L529.887 44.294ZM534.359 41.37L534.731 42.2985L534.738 42.2954L534.746 42.2922L534.359 41.37ZM550.269 44.294L550.992 43.6028L550.992 43.6024L550.269 44.294ZM553.193 49.024L552.257 49.3751L552.264 49.3931L552.271 49.4107L553.193 49.024ZM554.311 58.312V59.312H555.311V58.312H554.311ZM545.539 58.312H544.539V59.312H545.539V58.312ZM544.077 50.916L544.869 50.3045L544.077 50.916ZM535.735 51.088L534.856 50.6117L534.852 50.6185L534.849 50.6254L535.735 51.088ZM535.821 91.938L534.971 92.4644L534.98 92.4787L534.989 92.4927L535.821 91.938ZM541.841 93.486L542.104 94.4508L542.131 94.4435L542.158 94.4347L541.841 93.486ZM543.733 92.454L544.358 93.2349L544.378 93.2187L544.398 93.2014L543.733 92.454ZM545.023 90.562L544.104 90.1681V90.1681L545.023 90.562ZM545.539 84.542V83.542H544.539V84.542H545.539ZM553.311 84.542V88.326H555.311V84.542H553.311ZM553.311 88.326C553.311 90.0825 552.966 91.7531 552.276 93.3464L554.111 94.1416C554.911 92.2949 555.311 90.3535 555.311 88.326H553.311ZM552.269 93.3616C551.629 94.9081 550.724 96.2944 549.547 97.5248L550.992 98.9072C552.338 97.5003 553.381 95.9052 554.117 94.1264L552.269 93.3616ZM549.547 97.5248C548.375 98.7502 546.987 99.7395 545.374 100.492L546.22 102.304C548.048 101.451 549.641 100.319 550.992 98.9072L549.547 97.5248ZM545.388 100.485C543.863 101.169 542.198 101.516 540.379 101.516V103.516C542.46 103.516 544.406 103.117 546.206 102.311L545.388 100.485ZM540.379 101.516C538.81 101.516 537.205 101.3 535.563 100.862L535.048 102.794C536.846 103.274 538.624 103.516 540.379 103.516V101.516ZM535.563 100.862C533.984 100.441 532.567 99.706 531.302 98.6518L530.021 100.188C531.508 101.427 533.186 102.298 535.048 102.794L535.563 100.862ZM531.302 98.6518C530.04 97.6001 528.973 96.2478 528.11 94.5754L526.333 95.4926C527.304 97.3749 528.531 98.9465 530.021 100.188L531.302 98.6518ZM528.127 94.6096C527.348 92.9487 526.931 90.7839 526.931 88.068H524.931C524.931 90.9708 525.374 93.45 526.316 95.4584L528.127 94.6096ZM526.931 88.068V54.356H524.931V88.068H526.931ZM526.931 54.356C526.931 52.4659 527.255 50.7298 527.892 49.1374L526.035 48.3946C525.296 50.2422 524.931 52.2328 524.931 54.356H526.931ZM527.892 49.1374C528.531 47.5382 529.433 46.163 530.594 45.0011L529.18 43.5869C527.819 44.9477 526.771 46.5538 526.035 48.3946L527.892 49.1374ZM530.594 45.0011C531.756 43.8392 533.132 42.9382 534.731 42.2985L533.988 40.4415C532.147 41.1778 530.541 42.2261 529.18 43.5869L530.594 45.0011ZM534.746 42.2922C536.389 41.6032 538.205 41.252 540.207 41.252V39.252C537.967 39.252 535.884 39.6462 533.973 40.4478L534.746 42.2922ZM540.207 41.252C544.095 41.252 547.177 42.5099 549.547 44.9856L550.992 43.6024C548.202 40.6887 544.576 39.252 540.207 39.252V41.252ZM549.547 44.9852C550.708 46.1991 551.613 47.6576 552.257 49.3751L554.13 48.6729C553.398 46.721 552.354 45.0262 550.992 43.6028L549.547 44.9852ZM552.271 49.4107C552.96 51.0538 553.311 52.87 553.311 54.872H555.311C555.311 52.6313 554.917 50.5489 554.116 48.6373L552.271 49.4107ZM553.311 54.872V58.312H555.311V54.872H553.311ZM554.311 57.312H545.539V59.312H554.311V57.312ZM546.539 58.312V55.388H544.539V58.312H546.539ZM546.539 55.388C546.539 53.4653 545.99 51.7552 544.869 50.3045L543.286 51.5274C544.114 52.5995 544.539 53.8707 544.539 55.388H546.539ZM544.869 50.3045C543.695 48.7861 542.078 48.024 540.121 48.024V50.024C541.49 50.024 542.51 50.5232 543.286 51.5274L544.869 50.3045ZM540.121 48.024C537.739 48.024 535.842 48.7912 534.856 50.6117L536.615 51.5643C537.119 50.6328 538.146 50.024 540.121 50.024V48.024ZM534.849 50.6254C534.063 52.1314 533.703 53.996 533.703 56.162H535.703C535.703 54.2 536.032 52.6819 536.622 51.5506L534.849 50.6254ZM533.703 56.162V87.466H535.703V56.162H533.703ZM533.703 87.466C533.703 89.3822 534.106 91.0665 534.971 92.4644L536.672 91.4116C536.046 90.4015 535.703 89.1045 535.703 87.466H533.703ZM534.989 92.4927C536.044 94.0748 537.836 94.744 540.035 94.744V92.744C538.222 92.744 537.204 92.2092 536.653 91.3833L534.989 92.4927ZM540.035 94.744C540.709 94.744 541.4 94.6429 542.104 94.4508L541.578 92.5212C541.022 92.6731 540.508 92.744 540.035 92.744V94.744ZM542.158 94.4347C542.959 94.1676 543.694 93.7663 544.358 93.2349L543.109 91.6731C542.626 92.059 542.1 92.3458 541.525 92.5373L542.158 94.4347ZM544.398 93.2014C545.049 92.6228 545.555 91.859 545.942 90.9559L544.104 90.1681C543.803 90.8703 543.45 91.3679 543.069 91.7066L544.398 93.2014ZM545.942 90.9559C546.356 89.9912 546.539 88.8434 546.539 87.552H544.539C544.539 88.6686 544.379 89.5275 544.104 90.1681L545.942 90.9559ZM546.539 87.552V84.542H544.539V87.552H546.539ZM545.539 85.542H554.311V83.542H545.539V85.542ZM561.727 102H560.727V103H561.727V102ZM561.727 40.768V39.768H560.727V40.768H561.727ZM570.499 40.768H571.499V39.768H570.499V40.768ZM570.499 102V103H571.499V102H570.499ZM562.727 102V40.768H560.727V102H562.727ZM561.727 41.768H570.499V39.768H561.727V41.768ZM569.499 40.768V102H571.499V40.768H569.499ZM570.499 101H561.727V103H570.499V101ZM579.022 102H578.022V103H579.022V102ZM579.022 40.768V39.768H578.022V40.768H579.022ZM605.166 40.768H606.166V39.768H605.166V40.768ZM605.166 49.024V50.024H606.166V49.024H605.166ZM587.794 49.024V48.024H586.794V49.024H587.794ZM587.794 66.998H586.794V67.998H587.794V66.998ZM602.93 66.998H603.93V65.998H602.93V66.998ZM602.93 75.254V76.254H603.93V75.254H602.93ZM587.794 75.254V74.254H586.794V75.254H587.794ZM587.794 93.228H586.794V94.228H587.794V93.228ZM605.166 93.228H606.166V92.228H605.166V93.228ZM605.166 102V103H606.166V102H605.166ZM580.022 102V40.768H578.022V102H580.022ZM579.022 41.768H605.166V39.768H579.022V41.768ZM604.166 40.768V49.024H606.166V40.768H604.166ZM605.166 48.024H587.794V50.024H605.166V48.024ZM586.794 49.024V66.998H588.794V49.024H586.794ZM587.794 67.998H602.93V65.998H587.794V67.998ZM601.93 66.998V75.254H603.93V66.998H601.93ZM602.93 74.254H587.794V76.254H602.93V74.254ZM586.794 75.254V93.228H588.794V75.254H586.794ZM587.794 94.228H605.166V92.228H587.794V94.228ZM604.166 93.228V102H606.166V93.228H604.166ZM605.166 101H579.022V103H605.166V101ZM610.508 102H609.508V103H610.508V102ZM610.508 40.768V39.768H609.508V40.768H610.508ZM618.936 40.768L619.877 40.4301L619.639 39.768H618.936V40.768ZM632.18 77.662L631.238 77.9999L631.476 78.662H632.18V77.662ZM632.352 77.662V78.662H633.352V77.662H632.352ZM632.352 40.768V39.768H631.352V40.768H632.352ZM641.124 40.768H642.124V39.768H641.124V40.768ZM641.124 102V103H642.124V102H641.124ZM632.868 102L631.928 102.342L632.168 103H632.868V102ZM619.452 65.192L620.391 64.8495L620.152 64.192H619.452V65.192ZM619.28 65.192V64.192H618.28V65.192H619.28ZM619.28 102V103H620.28V102H619.28ZM611.508 102V40.768H609.508V102H611.508ZM610.508 41.768H618.936V39.768H610.508V41.768ZM617.994 41.1059L631.238 77.9999L633.121 77.3241L619.877 40.4301L617.994 41.1059ZM632.18 78.662H632.352V76.662H632.18V78.662ZM633.352 77.662V40.768H631.352V77.662H633.352ZM632.352 41.768H641.124V39.768H632.352V41.768ZM640.124 40.768V102H642.124V40.768H640.124ZM641.124 101H632.868V103H641.124V101ZM633.807 101.658L620.391 64.8495L618.512 65.5344L631.928 102.342L633.807 101.658ZM619.452 64.192H619.28V66.192H619.452V64.192ZM618.28 65.192V102H620.28V65.192H618.28ZM619.28 101H610.508V103H619.28V101ZM676.929 84.542H677.929V83.542H676.929V84.542ZM675.811 93.744L674.893 93.3464L674.89 93.354L674.887 93.3616L675.811 93.744ZM672.887 98.216L673.609 98.9072L672.887 98.216ZM668.415 101.398L668.824 102.311L668.831 102.307L668.837 102.304L668.415 101.398ZM657.923 101.828L657.665 102.794L657.923 101.828ZM653.279 99.42L652.638 100.188L653.279 99.42ZM649.839 95.034L648.933 95.4584L648.941 95.4757L648.95 95.4926L649.839 95.034ZM649.581 48.766L650.509 49.1374V49.1374L649.581 48.766ZM652.505 44.294L653.212 45.0011V45.0011L652.505 44.294ZM656.977 41.37L657.348 42.2985L657.356 42.2954L657.363 42.2922L656.977 41.37ZM672.887 44.294L673.609 43.6028L673.609 43.6024L672.887 44.294ZM675.811 49.024L674.874 49.3751L674.881 49.3931L674.888 49.4107L675.811 49.024ZM676.929 58.312V59.312H677.929V58.312H676.929ZM668.157 58.312H667.157V59.312H668.157V58.312ZM666.695 50.916L667.486 50.3045L666.695 50.916ZM658.353 51.088L657.473 50.6117L657.47 50.6185L657.466 50.6254L658.353 51.088ZM658.439 91.938L657.588 92.4644L657.597 92.4787L657.606 92.4927L658.439 91.938ZM664.459 93.486L664.722 94.4508L664.748 94.4435L664.775 94.4347L664.459 93.486ZM666.351 92.454L666.975 93.2349L666.995 93.2187L667.015 93.2014L666.351 92.454ZM667.641 90.562L666.721 90.1681V90.1681L667.641 90.562ZM668.157 84.542V83.542H667.157V84.542H668.157ZM675.929 84.542V88.326H677.929V84.542H675.929ZM675.929 88.326C675.929 90.0825 675.583 91.7531 674.893 93.3464L676.728 94.1416C677.528 92.2949 677.929 90.3535 677.929 88.326H675.929ZM674.887 93.3616C674.247 94.9081 673.341 96.2944 672.164 97.5248L673.609 98.9072C674.955 97.5003 675.998 95.9052 676.735 94.1264L674.887 93.3616ZM672.164 97.5248C670.992 98.7502 669.604 99.7395 667.992 100.492L668.837 102.304C670.665 101.451 672.259 100.319 673.609 98.9072L672.164 97.5248ZM668.005 100.485C666.48 101.169 664.815 101.516 662.997 101.516V103.516C665.077 103.516 667.023 103.117 668.824 102.311L668.005 100.485ZM662.997 101.516C661.427 101.516 659.822 101.3 658.18 100.862L657.665 102.794C659.463 103.274 661.241 103.516 662.997 103.516V101.516ZM658.18 100.862C656.601 100.441 655.184 99.706 653.919 98.6518L652.638 100.188C654.125 101.427 655.804 102.298 657.665 102.794L658.18 100.862ZM653.919 98.6518C652.657 97.6001 651.59 96.2478 650.727 94.5754L648.95 95.4926C649.921 97.3749 651.148 98.9465 652.638 100.188L653.919 98.6518ZM650.744 94.6096C649.965 92.9487 649.549 90.7839 649.549 88.068H647.549C647.549 90.9708 647.992 93.45 648.933 95.4584L650.744 94.6096ZM649.549 88.068V54.356H647.549V88.068H649.549ZM649.549 54.356C649.549 52.4659 649.872 50.7298 650.509 49.1374L648.652 48.3946C647.913 50.2422 647.549 52.2328 647.549 54.356H649.549ZM650.509 49.1374C651.149 47.5382 652.05 46.163 653.212 45.0011L651.797 43.5869C650.437 44.9477 649.388 46.5538 648.652 48.3946L650.509 49.1374ZM653.212 45.0011C654.374 43.8392 655.749 42.9382 657.348 42.2985L656.605 40.4415C654.764 41.1778 653.158 42.2261 651.797 43.5869L653.212 45.0011ZM657.363 42.2922C659.006 41.6032 660.823 41.252 662.825 41.252V39.252C660.584 39.252 658.501 39.6462 656.59 40.4478L657.363 42.2922ZM662.825 41.252C666.712 41.252 669.794 42.5099 672.164 44.9856L673.609 43.6024C670.819 40.6887 667.193 39.252 662.825 39.252V41.252ZM672.164 44.9852C673.325 46.1991 674.23 47.6576 674.874 49.3751L676.747 48.6729C676.015 46.721 674.971 45.0262 673.609 43.6028L672.164 44.9852ZM674.888 49.4107C675.577 51.0538 675.929 52.87 675.929 54.872H677.929C677.929 52.6313 677.534 50.5489 676.733 48.6373L674.888 49.4107ZM675.929 54.872V58.312H677.929V54.872H675.929ZM676.929 57.312H668.157V59.312H676.929V57.312ZM669.157 58.312V55.388H667.157V58.312H669.157ZM669.157 55.388C669.157 53.4653 668.607 51.7552 667.486 50.3045L665.903 51.5274C666.732 52.5995 667.157 53.8707 667.157 55.388H669.157ZM667.486 50.3045C666.312 48.7861 664.695 48.024 662.739 48.024V50.024C664.107 50.024 665.127 50.5232 665.903 51.5274L667.486 50.3045ZM662.739 48.024C660.356 48.024 658.459 48.7912 657.473 50.6117L659.232 51.5643C659.736 50.6328 660.764 50.024 662.739 50.024V48.024ZM657.466 50.6254C656.68 52.1314 656.321 53.996 656.321 56.162H658.321C658.321 54.2 658.649 52.6819 659.239 51.5506L657.466 50.6254ZM656.321 56.162V87.466H658.321V56.162H656.321ZM656.321 87.466C656.321 89.3822 656.723 91.0665 657.588 92.4644L659.289 91.4116C658.663 90.4015 658.321 89.1045 658.321 87.466H656.321ZM657.606 92.4927C658.661 94.0748 660.453 94.744 662.653 94.744V92.744C660.839 92.744 659.821 92.2092 659.271 91.3833L657.606 92.4927ZM662.653 94.744C663.326 94.744 664.017 94.6429 664.722 94.4508L664.195 92.5212C663.639 92.6731 663.126 92.744 662.653 92.744V94.744ZM664.775 94.4347C665.576 94.1676 666.311 93.7663 666.975 93.2349L665.726 91.6731C665.243 92.059 664.717 92.3458 664.142 92.5373L664.775 94.4347ZM667.015 93.2014C667.666 92.6228 668.173 91.859 668.56 90.9559L666.721 90.1681C666.42 90.8703 666.067 91.3679 665.686 91.7066L667.015 93.2014ZM668.56 90.9559C668.973 89.9912 669.157 88.8434 669.157 87.552H667.157C667.157 88.6686 666.996 89.5275 666.721 90.1681L668.56 90.9559ZM669.157 87.552V84.542H667.157V87.552H669.157ZM668.157 85.542H676.929V83.542H668.157V85.542ZM684.344 102H683.344V103H684.344V102ZM684.344 40.768V39.768H683.344V40.768H684.344ZM693.116 40.768H694.116V39.768H693.116V40.768ZM693.116 102V103H694.116V102H693.116ZM685.344 102V40.768H683.344V102H685.344ZM684.344 41.768H693.116V39.768H684.344V41.768ZM692.116 40.768V102H694.116V40.768H692.116ZM693.116 101H684.344V103H693.116V101ZM719.355 80.586V81.586H720.567L720.336 80.3957L719.355 80.586ZM715.055 58.398L716.036 58.2077L715.88 57.398H715.055V58.398ZM714.883 58.398V57.398H714.058L713.901 58.2077L714.883 58.398ZM710.583 80.586L709.601 80.3957L709.37 81.586H710.583V80.586ZM697.683 102L696.707 101.782L696.435 103H697.683V102ZM711.357 40.768V39.768H710.555L710.381 40.5501L711.357 40.768ZM718.667 40.768L719.643 40.5501L719.468 39.768H718.667V40.768ZM732.341 102V103H733.589L733.317 101.782L732.341 102ZM723.569 102L722.587 102.192L722.746 103H723.569V102ZM720.989 88.842L721.97 88.6496L721.812 87.842H720.989V88.842ZM709.035 88.842V87.842H708.212L708.053 88.6496L709.035 88.842ZM706.455 102V103H707.278L707.436 102.192L706.455 102ZM720.336 80.3957L716.036 58.2077L714.073 58.5883L718.373 80.7763L720.336 80.3957ZM715.055 57.398H714.883V59.398H715.055V57.398ZM713.901 58.2077L709.601 80.3957L711.564 80.7763L715.864 58.5883L713.901 58.2077ZM710.583 81.586H719.355V79.586H710.583V81.586ZM698.659 102.218L712.333 40.9859L710.381 40.5501L696.707 101.782L698.659 102.218ZM711.357 41.768H718.667V39.768H711.357V41.768ZM717.691 40.9859L731.365 102.218L733.317 101.782L719.643 40.5501L717.691 40.9859ZM732.341 101H723.569V103H732.341V101ZM724.55 101.808L721.97 88.6496L720.007 89.0344L722.587 102.192L724.55 101.808ZM720.989 87.842H709.035V89.842H720.989V87.842ZM708.053 88.6496L705.473 101.808L707.436 102.192L710.016 89.0344L708.053 88.6496ZM706.455 101H697.683V103H706.455V101Z" fill="white"/>
</g>
<defs>
<filter id="filter0_d" x="0.405334" y="0" width="876.316" height="150" filterUnits="userSpaceOnUse" color-interpolation-filters="sRGB">
<feFlood flood-opacity="0" result="BackgroundImageFix"/>
<feColorMatrix in="SourceAlpha" type="matrix" values="0 0 0 0 0 0 0 0 0 0 0 0 0 0 0 0 0 0 127 0"/>
<feOffset dy="4"/>
<feGaussianBlur stdDeviation="2"/>
<feColorMatrix type="matrix" values="0 0 0 0 0 0 0 0 0 0 0 0 0 0 0 0 0 0 0.25 0"/>
<feBlend mode="normal" in2="BackgroundImageFix" result="effect1_dropShadow"/>
<feBlend mode="normal" in="SourceGraphic" in2="effect1_dropShadow" result="shape"/>
</filter>
<filter id="filter1_d" x="138.68" y="38.252" width="270.952" height="72.264" filterUnits="userSpaceOnUse" color-interpolation-filters="sRGB">
<feFlood flood-opacity="0" result="BackgroundImageFix"/>
<feColorMatrix in="SourceAlpha" type="matrix" values="0 0 0 0 0 0 0 0 0 0 0 0 0 0 0 0 0 0 127 0"/>
<feOffset dy="4"/>
<feGaussianBlur stdDeviation="2"/>
<feColorMatrix type="matrix" values="0 0 0 0 0 0 0 0 0 0 0 0 0 0 0 0 0 0 0.25 0"/>
<feBlend mode="normal" in2="BackgroundImageFix" result="effect1_dropShadow"/>
<feBlend mode="normal" in="SourceGraphic" in2="effect1_dropShadow" result="shape"/>
</filter>
<filter id="filter2_d" x="411.08" y="39.252" width="326.509" height="72.264" filterUnits="userSpaceOnUse" color-interpolation-filters="sRGB">
<feFlood flood-opacity="0" result="BackgroundImageFix"/>
<feColorMatrix in="SourceAlpha" type="matrix" values="0 0 0 0 0 0 0 0 0 0 0 0 0 0 0 0 0 0 127 0"/>
<feOffset dy="4"/>
<feGaussianBlur stdDeviation="2"/>
<feColorMatrix type="matrix" values="0 0 0 0 0 0 0 0 0 0 0 0 0 0 0 0 0 0 0.25 0"/>
<feBlend mode="normal" in2="BackgroundImageFix" result="effect1_dropShadow"/>
<feBlend mode="normal" in="SourceGraphic" in2="effect1_dropShadow" result="shape"/>
</filter>
</defs>
</svg>
