<svg xmlns="http://www.w3.org/2000/svg" viewBox="0 0 766.25 1119.82"><defs><style>.cls-1{fill:#92c95e;}</style></defs><title>Asset 70</title><g id="Layer_2" data-name="Layer 2"><g id="Layer_1-2" data-name="Layer 1"><polygon class="cls-1" points="764.46 752.19 758.13 741.05 751.85 729.92 745.53 718.8 739.22 707.7 732.89 696.57 726.58 685.48 720.29 674.39 713.98 663.29 712.25 660.28 711.12 660.25 703.63 661.06 701.6 660.65 699.32 659.18 698.29 658.74 696.67 658.63 694.21 658.78 693.04 658.7 691.87 658.38 689.33 658.26 674.68 665.71 672.21 666.57 669.2 667.16 666.08 667.29 663.03 666.81 660.24 665.42 658.74 664.03 656 660.83 654.4 659.4 653.07 659.68 647.9 663.84 647.9 658.89 647.93 651.1 647.97 643.35 647.97 635.57 648.01 627.78 648.01 619.98 648.05 612.24 648.05 604.45 648.08 596.71 648.08 593.02 648.64 590.61 649 589.95 649.47 589.43 650.06 588.98 650.69 588.62 651.02 588.62 651.66 589.02 651.98 588.95 652.26 588.62 652.41 587.88 652.64 587.48 653.33 586.49 653.8 585.42 653.93 584.29 653.53 583.04 652.81 582.15 651.02 580.76 650.36 579.85 649.96 578.71 649.51 576.72 648.92 575.62 649.26 575.54 650.84 575.47 651.18 575.58 651.98 575.73 652.57 575.58 651.72 574.15 651.83 573.38 652.33 572.79 653.13 572.57 653.01 572.38 652.81 571.91 652.72 571.72 653.85 571.21 654.13 570.45 654.28 569.44 654.92 568.34 655.02 568.2 654.94 567.39 652.41 567.65 651.2 567.89 650.03 568.49 648.78 569.56 646.64 572.16 645.5 573.31 641.5 575.54 640.26 576.47 637.98 578.77 636.76 579.73 633.75 581.38 632.76 582.49 631.05 585.02 630.34 585.61 628.79 586.57 628.09 587.11 627.55 587.85 626.84 589.39 626.37 590.09 625.28 590.94 621.53 591.96 617.48 593.73 616.47 594.49 615.68 595.82 615.13 597.25 614.33 598.43 611.39 599.41 609.25 601.08 608.09 601.69 607.28 601.73 606.76 601.44 606.31 601.08 605.66 600.84 604.82 600.92 604.49 601.29 604.23 601.73 603.63 602.21 602.54 602.5 600.29 602.5 589.49 602.47 578.73 602.47 567.94 602.42 553.91 602.42 554.57 601.15 554.64 600.09 554.52 599.01 554.6 597.77 554.92 597.11 555.89 596 556.04 595.22 555.89 594.6 555.38 593.37 555.23 592.65 553.94 590.24 549.68 587.59 548.98 585.27 549.71 582.96 549.9 581.78 549.53 580.72 547.91 578.77 547.33 577.75 547.18 576.47 547.25 574.7 547.18 574.11 546.81 573.59 546.19 573.55 545.48 573.67 544.9 573.59 543.8 572.87 542.14 571.39 540.97 570.77 539.73 570.52 536.05 570.77 533.33 570.48 532.19 570.14 529.7 568.9 527.23 568.13 526.07 567.89 525.84 567.93 525.36 568.26 525.07 568.34 524.74 568.24 524.19 567.79 523.89 567.65 516.55 566.18 492.27 566.07 493.56 564.01 496.75 560.81 498.14 558.94 499.13 557 499.79 556.04 500.54 555.56 501.38 555.46 502.37 555.19 503.18 554.72 503.54 553.99 503.59 552.29 506.33 550.13 506.95 549.36 507.43 548.18 507.74 546.38 507.07 541.28 506.7 540.28 505.06 537.79 504.24 536.94 502.01 535.43 501.12 534.7 496.45 527.9 495.39 525.33 494.7 524.19 493.67 523.17 492.49 522.55 489 521.82 487.71 521.14 486.61 520.08 484.05 516.74 483.68 515.75 483.64 514.61 484.19 511.89 484.14 510.64 483.71 509.53 482.87 508.66 482.32 508.47 481.03 508.3 480.45 508.06 479.86 507.52 478.86 506.23 478.2 505.69 473.42 503.04 472.55 502.19 472.14 501.06 471.84 498.56 471.3 496.98 469.54 494.66 468.75 493.27 468.61 492.13 468.94 489.85 468.91 488.68 468.25 487.25 466.26 484.56 465.87 483.2 464.87 481.26 462.55 480.04 459.98 479.02 458.15 477.61 457.78 476.82 457.11 473.87 457.18 472.77 458.11 472.8 460.12 473.53 462.12 472.3 462.78 469.98 462.19 467.55 460.39 466.12 458.11 465.42 456.19 464.61 454.56 463.48 446.65 455.21 444.19 453.82 443.67 452.75 446.5 451.54 447.27 450.22 447.34 448.9 447.82 447.98 448.15 446.99 447.8 445.44 446.02 442.5 445.81 441.4 447.13 441.4 449.59 442.36 450.69 442.42 452.05 441.92 454.25 440.59 455.31 440.26 456.85 440.14 459.25 440.26 460.42 440.09 461.41 439.49 462.14 438.27 461.97 437.15 461.45 436.01 460.83 433.43 456.68 427.48 456.13 426.05 456.5 424.54 457.33 422.86 458.85 417.34 458.95 414 459.31 413.01 459.98 412.28 462.51 410.73 463.11 409.96 463.85 408.41 464.6 407.76 466.3 406.73 469.35 404.34 474.24 401.52 478.31 398.02 480.7 396.56 482.83 394.64 484.14 394.2 488.41 394.12 491.13 393.43 493.22 392.33 494.88 390.61 496.31 388.14 497.31 385.64 497.56 384.33 497.58 383 497.16 381.61 495.84 378.85 495.49 377.46 494.84 372.61 494.51 371.58 491.61 368.27 491.02 366.83 491.06 364.05 492.02 361.77 493.33 359.64 496.78 352 498.88 350.09 505.16 341.75 506.04 340.1 506.68 338.33 507.66 332.75 507.66 331.07 507.14 329.12 506.85 327.13 507.43 325.14 509.21 321.43 509.46 320.48 509.86 317.91 510.34 317.03 510.97 316.22 511.51 315.39 511.62 314.42 511.29 310.75 510.97 309.79 510.42 308.92 509.96 307.86 510.24 306.97 511.66 306.6 512.47 306.56 512.95 306.45 513.79 306.02 513.87 305.75 513.9 304.88 514.09 304.57 514.39 304.54 515.15 304.8 515.48 304.84 517.94 304.36 518.98 303.88 519.79 302.89 520.52 302.3 521.66 302.45 522.9 302.81 526.17 302.81 526.73 302.64 527.31 302.12 527.49 301.56 527.53 300.98 527.79 300.36 528.6 299.59 530.24 298.81 531.71 297.2 532.67 296.46 533.77 295.98 534.91 295.84 535.78 295.8 536.16 295.44 536.34 294.92 536.67 294.37 536.71 294.15 536.71 293.81 536.75 293.45 536.92 293.12 537.19 293.01 538.04 292.97 538.37 292.9 539.66 292.23 540.65 291.54 541.3 290.55 541.74 287.29 542.37 286.57 544.9 285.88 545.21 285.55 545.38 285.11 545.67 284.7 546.41 284.53 548.65 284.86 549.46 284.81 550.56 284.45 551.64 283.83 554.71 281.55 558.05 279.71 559.19 278.75 559.89 277.88 561 275.68 561.43 275.2 561.95 275.23 562.49 275.49 563.09 275.7 563.61 275.6 564.15 275.23 565.15 274.39 566.95 273.81 569.77 271.08 571.35 269.99 572.38 269.68 577.38 269.13 577.79 268.98 578 268.73 578.07 268.33 578.25 267.92 578.73 267.67 579.39 267.74 580.75 268.36 581.45 268.58 582.59 268.44 583.29 267.92 583.91 267.74 584.87 268.48 585.5 269.06 585.96 269.31 586.52 269.25 587.29 268.98 588.5 267.78 589.13 267.59 588.87 268.88 591.66 267.7 592.5 267.63 594.01 267.92 594.49 267.96 594.82 267.59 595.19 266.27 595.59 265.75 596.44 265.39 597.36 265.27 599.2 265.23 601.99 264.83 602.79 264.94 603.38 265.39 603.74 266.05 604.26 266.37 605.08 266.05 605.29 265.87 605.83 265.13 606.22 264.94 606.62 265.02 606.94 265.2 607.16 265.23 607.76 264.46 607.76 263.84 607.64 263.23 607.78 262.53 608.78 261.68 610.21 261.35 611.6 261.64 613.26 263.48 614.06 262.57 614.94 261.16 615.93 260.58 616.34 260.98 617.01 262.33 617.48 262.78 618.44 262.93 619 262.59 619.81 261.23 621.27 260.65 624.42 261.97 625.6 261.02 625.9 259.65 626.84 260.8 628.09 261.93 629.35 260.69 629.91 259.51 630.67 258.55 632.47 256.79 633.05 255.81 633.39 254.73 633.87 253.86 634.79 253.38 635.74 253.09 635.88 252.49 635.37 251.06 635.59 250.25 636.36 249.55 639.22 248.16 639.85 248.09 643.64 249.07 644.7 249.11 645.37 248.6 646.05 246.77 646.61 246.09 647.56 245.71 648.51 245.88 648.59 246.77 648.41 247.87 648.45 248.78 651.27 250.44 651.83 249.82 652.09 248.7 652.49 247.68 653.45 247.2 654.4 247.58 654.66 248.45 654.84 249.34 655.5 249.7 656.39 249.41 658.88 247.43 659.83 247.02 660.67 246.81 661.56 246.91 662.59 247.31 664.09 248.64 664.83 248.86 665.93 247.13 666.7 247.35 667.4 248.16 667.88 249.05 667.98 250.25 667.43 252.53 667.55 253.59 668.13 254.4 671.12 256.75 671.71 256.95 672.21 256.91 672.69 257.01 673.09 257.6 673.58 258.55 674.27 259.4 675.41 258.38 676.41 256.1 677.17 255 678.28 254.4 679.62 254.3 680.84 254.73 681.49 255.83 681.8 257.34 682.13 257.78 682.87 258.51 683.6 259.03 684.45 259.25 685.29 259.15 687.34 257.68 688.38 256.24 688.97 254.67 688.81 252.97 687.12 249.63 686.06 248.09 684.84 246.66 683.02 245.19 676.92 242.1 675.3 240.48 674.68 238.5 674.31 236.34 673.58 234.2 672.13 232.15 670.16 230.09 667.88 228.44 665.57 227.63 663.84 227.81 662.55 228.62 660.16 230.75 658.63 231.45 657 231.42 653.78 230.6 653.13 230.16 644.92 225.9 642.29 225.6 644.34 222.45 649.07 215.1 653.8 207.72 658.55 200.37 663.3 192.99 668.03 185.65 672.76 178.27 677.54 170.91 682.28 163.57 683.64 161.41 683.64 161.37 683.31 161.26 682.61 160.7 682.09 159.96 681.72 159.09 680.96 156.44 680.3 156 679.04 156.81 678.71 157.36 678.42 158.03 678.13 158.5 677.57 158.65 677.01 158.36 676.92 157.8 676.96 157.22 676.76 156.59 675.54 155.67 674.53 155.96 673.53 156.41 672.39 156 671.73 154.94 670.89 152.37 670.12 151.27 668.79 150.6 667.62 151 666.41 151.7 664.95 152.1 664.64 151.93 664.25 151.48 663.96 150.93 663.91 150.42 664.21 150.17 665.23 149.76 665.52 149.57 665.83 148.29 665.04 147.7 663.76 147.56 662.49 147.56 661.82 147.74 660.39 148.32 659.75 148.4 659.07 148.03 658.69 147.52 658.51 146.93 658.14 146.27 657.37 145.61 656.35 145.09 655.17 144.76 654.18 144.61 653.22 144.14 652.49 143.29 651.68 142.78 650.65 143.44 650.51 144.03 650.54 144.69 650.46 145.28 650.03 145.5 647.52 145.5 647.12 145.21 647.02 144.47 647.02 143.62 646.91 143 646.54 142.37 644.63 140.8 644.42 140.69 644.42 138.93 644.26 138.45 643.97 138.16 642.39 137.97 641.28 137.68 639.04 136.9 636.94 135.55 633.83 132.19 632 131.09 630.74 131.65 629.2 131.36 626.67 130.29 624.91 130.26 624.29 131.09 624.42 132.46 624.97 133.97 624.42 134.29 623.69 134.37 622.96 134.22 621.41 133.31 620.64 133.27 618.95 133.56 617.55 134.22 616.41 137.06 614.69 137.93 613.55 138.81 612.92 138.96 612.26 138.74 611.53 138.19 610.87 138.04 609.99 138.41 608.74 139.07 607.61 139.32 607.13 138.48 602.79 140.57 600.77 141.02 600.08 139.76 600.34 139.29 601.13 138.55 601.33 138.04 601.1 137.42 599.67 135.61 598.6 133.74 597.99 133.52 597.13 134.41 596.54 136.65 596.06 137.34 595.11 136.9 594.72 135.98 594.64 133.44 594.34 132.35 593.64 131.83 590.16 131.09 588.91 130.44 587.81 129.56 586.6 128.85 585.16 128.6 583.14 129.63 581.96 129.81 581.45 128.81 581.55 126.69 581.07 126.36 579.76 126.95 576.24 129.19 575.64 129.22 575.35 129.85 573.15 133.16 570.31 135.36 569.83 135.84 569.58 137.16 568.85 137.89 567.78 138.16 563.96 137.64 562.01 137.64 560.33 138.29 558.65 139.76 555.96 142.81 555.08 143.07 551.16 142.19 550.56 142.23 549.02 142.56 548.68 142.81 548.72 144.03 548.57 144.47 548.06 144.61 546.62 144.76 544.24 145.38 542.88 145.5 541.74 145.28 540.67 144.69 539.86 143.95 539.59 143.26 539.03 142.78 532.83 141.79 531.68 141.46 528.92 139.26 527.87 138.66 526.76 138.48 526.01 139.47 524.41 142.74 523.64 143.44 522.65 143.81 522.26 143.66 522.1 142.08 521.91 141.46 521.66 140.94 521.36 140.5 520.63 140.87 520.12 141.31 519.81 141.86 519.66 142.6 518.09 141.46 517.05 141.13 515.56 141.86 513.83 142.49 513.13 143.18 512.3 143.47 509.71 143.99 509.16 143.99 508.69 143.62 508.09 142.6 507.07 139.8 506.19 139.07 506 138.7 501.85 136.42 501.71 137.08 500.98 138.45 500.19 139.18 499.79 137.89 499.28 137.34 496.63 136.69 495.65 136.02 495.49 135.57 495.21 133.78 495.03 133.44 494.17 132.83 493.99 132.53 493.89 132.17 493.3 131.24 493.18 130.66 493.26 130.07 493.44 129.66 493.99 129 496.19 127.05 496.75 125.74 498.55 122.83 497.74 122.07 497.26 120.81 496.92 119.42 496.52 118.32 495.46 116.78 495.05 115.97 494.84 115 494.92 114.17 495.49 112.66 495.65 112.11 495.29 111.12 493.89 109.42 493.56 108.61 493.99 106.37 493.59 105.72 493.08 105.39 492.52 105.17 491.94 104.73 490.32 102.93 489.69 102.93 489.44 104.5 489.08 104.73 487.06 104.21 486.1 104.32 485.14 105.27 484.66 105.94 484.05 105.83 482.6 104.5 481.84 104.03 481.11 103.96 480.45 103.99 479.58 103.88 478.93 103.96 478.64 103.92 478.58 103.7 478.35 102.89 478.27 102.66 474.35 100.29 473.14 98.82 473.29 96.5 473.97 94.47 474.49 93.6 475.97 92.72 475.99 91.58 475.37 89.08 475.3 88.27 475.3 87.64 475.19 87.06 474.71 86.4 473.46 85.47 472.76 84.41 470.53 83.39 469.97 82.47 470.93 81.33 471.22 80.67 470.27 80.26 469.94 79.86 469.64 79.37 469.54 78.94 469.46 77.65 469.35 77.14 469.13 76.7 468.91 76.67 468.1 76.77 467.88 76.7 467.76 76.44 467.66 75.78 467.21 74.87 467.07 74.2 466.78 73.65 465.34 73.25 464.17 72.4 463.51 72.22 462.12 71.96 460.98 71.34 460.12 70.41 459.62 69.35 458.7 69.68 457.74 71.19 456.7 71.74 456.02 71.74 455.02 71.52 453.41 70.97 452.61 70.41 451.97 69.79 450.9 68.11 450 65.72 449.62 65.16 448.63 64.79 446.73 65.2 445.92 64.77 445.84 64.29 446.39 63.23 446.33 62.74 445.81 62.3 445.51 62.45 445.29 62.86 445.07 63.11 444.4 63.4 444.12 63.73 443.78 63.8 443.01 63.52 442.53 63.11 442.25 62.59 440.81 58.4 440.15 57.78 439.19 59.54 437.54 59.58 433.87 58.18 430.27 57.53 428.65 56.64 427.29 54.88 426.45 52.16 425.82 51.39 424.31 50.37 423.95 49.81 424.35 49.11 425.13 48.97 426.07 49.15 426.92 49.15 427.29 48.49 426.95 47.72 426.34 47.1 426 46.4 426.48 45.44 426 45.23 424.93 45.19 424.35 45.03 423.95 44.74 421.89 42.5 421.49 41.62 421.52 40.48 421.78 39.97 422.56 39.3 422.71 38.87 419.83 32.66 419.69 32.15 419.64 31.44 419.5 30.86 419.21 30.6 418.37 30.57 418.07 30.42 417.52 29.57 416.76 28.7 416.03 28.06 412.34 25.86 410.76 24.66 408.23 21.98 406.5 19.1 405.95 18.67 405.29 18.77 404.78 19.06 404.4 19.37 404.07 19.51 403.26 19.47 402.91 19.25 402.72 18.96 402.38 18.67 401.99 18.33 401.72 18.07 401.37 17.9 399.85 17.75 398.63 17.46 398.02 17.38 396.95 17.01 397.42 16.2 399.11 14.95 397.02 10.81 396.18 9.6 394.88 8.49 394.2 8.63 392.68 11.06 392 11.57 391.4 11.61 390.38 11.28 388.31 10.84 387.04 10.25 386.23 9.63 383.77 6.99 383.37 6.68 382.81 6.51 381.75 6.51 381.23 6.32 380.53 5.66 378.15 2.39 377.01 1.51 375.72 0.85 373 0.12 371.8 0 370.88 0.19 370.28 0.81 370.1 1.95 369.77 2.72 369.04 3.65 368.08 4.38 367.17 4.67 366.43 5.58 365.06 6.54 364.31 6.95 363.49 7.2 362.53 7.24 360.48 6.95 359.96 7.03 358.34 8.09 356.76 7.94 352.51 5.66 351.7 5.44 350.86 5.44 349.75 5.56 348.84 5.37 347.72 4.92 346.63 4.63 345.75 4.92 345.42 5.99 345.71 7.32 346.3 8.49 346.85 9.12 347.4 9.23 348.69 9.15 349.27 9.23 350 9.67 351.29 10.84 352.03 11.2 353.32 11.64 354.3 12.24 355 13.11 356.91 19.91 358.05 22.44 359.77 24.83 360.89 25.86 361.57 26.3 362.2 26.42 362.94 26.34 363.31 26.53 363.52 26.9 365.92 28.7 366.18 28.98 366.46 29.68 366.72 29.97 367.01 30.01 367.57 29.72 367.86 29.83 368.52 30.9 368.73 32 368.56 34.35 368.64 34.86 368.78 35.3 368.85 35.74 368.71 36.29 368.19 36.84 367.46 37.21 366.79 37.66 366.53 38.35 366.59 38.97 366.83 40.08 366.86 40.67 366.76 41.29 366.36 42.35 366.36 43.13 369.04 52.2 369.04 52.72 368.96 53.78 369.06 54.33 369.52 55 370.1 55.5 370.53 56.1 370.53 56.5 370.03 56.53 367.17 56.53 364.58 56.87 363.19 56.83 362.61 56.35 362.28 55.73 361.43 54.77 359.75 53.23 359.34 53.74 358.61 56.72 356.76 63.8 354.96 70.89 353.13 77.98 351.33 85.03 350.46 88.53 349.65 90.61 348.2 92.31 344.9 95.4 342.48 98.19 339.47 101.68 336.42 105.21 333.41 108.69 330.4 112.18 327.38 115.68 324.33 119.16 321.32 122.65 318.31 126.18 314.71 128.89 311.12 131.65 307.47 134.41 303.88 137.16 300.28 139.91 296.64 142.64 293.04 145.38 289.44 148.14 286.03 150.75 282.43 152.91 276.84 154.83 269.24 157.47 261.63 160.12 254.03 162.76 246.43 165.41 238.82 168.05 231.23 170.7 223.62 173.34 216.01 175.99 212.01 177.38 210.87 177.96 206.43 181.83 200.29 189.97 197.39 192.41 196.51 193.32 194.67 196.88 193.9 197.95 191.7 199.57 191 200.41 191 201.73 191.7 202.83 192.64 203.49 193.38 204.38 193.53 206.02 192.97 207.28 192.03 207.65 190.96 207.9 190.01 208.67 189.2 209.04 188.62 207.97 187.76 204.09 187.33 203.2 186.56 202.58 183.95 201.84 182.66 201.7 181.67 201.99 181 203.13 181.05 203.49 181.41 204.71 181.38 205.37 180.94 207.94 180.05 210.66 178.95 213.09 178.54 214.29 178.39 215.47 178.44 217.63 178.66 218.88 178.62 219.48 178.18 219.81 177.41 219.95 177.12 220.02 177.07 220.35 177.07 221.09 177.85 224.99 177.48 226.16 176.01 227.59 175.53 227.88 174.8 228.25 174.43 228.51 173.81 229.68 173.37 230.82 172.77 235.26 172.77 235.71 172.52 235.93 171.68 236.4 170.9 236.67 170.17 236.71 169.51 236.88 168.89 237.5 168.6 238.5 168.62 242.1 168.02 244.75 164.29 252.43 163.74 255.07 163.23 256.24 162.09 257.16 161.61 258.41 161.69 260.69 162.17 262.93 162.9 264.06 164.33 264.94 164.19 265.91 163.23 267.05 162.34 268.48 162.21 269.58 162.27 270.75 162.21 271.93 161.66 272.88 159.33 274.42 153.79 276.63 151.3 278.02 148.55 280.55 147.41 282.1 146.7 283.75 146.74 285.41 148.14 288.12 148.42 289.55 147.81 290.77 146.37 291.06 144.8 291.09 143.59 291.4 142.95 292.39 142.26 295.32 141.81 296.57 140.27 298.22 138.51 299.69 137.41 298.59 136.75 298.12 136.09 297.78 135.46 297.71 134.51 297.97 133.89 297.97 132.83 297.75 130.8 297.04 129.74 296.87 125.43 297.02 124.04 296.65 123.23 295.65 122.58 294.37 121.76 293.23 121.25 292.87 120.07 292.42 119.52 292.06 119.18 291.54 118.83 290.32 118.5 289.81 117.44 289.05 116.17 288.39 115.16 287.54 114.7 286.28 114.52 285.07 112.95 282.1 112.25 278.54 110.49 275.97 110.52 274.68 111.92 272.22 112.07 271.34 111.74 270.75 110.49 270.06 109.02 270.06 108.65 269.87 107.8 269.21 107.33 268.98 104.27 265.97 102.59 265.17 100.42 265.46 98.32 266.68 94.28 267.92 92.01 267.59 90.5 266.05 89.26 264.13 87.72 262.74 86.13 262.33 84.59 262.33 83.01 262.16 81.36 261.23 80.15 260.39 78.2 258.26 77.1 257.34 76.07 256.97 74.82 256.75 73.82 256.43 73.42 255.81 73.28 255.83 70.82 256.17 70.15 256.39 69.53 256.68 69.01 257.09 68.5 257.93 67.87 260.06 67.44 261.02 66.48 262.05 61.82 265.56 59.37 266.89 58.77 267.41 58.29 267.48 57.23 267.48 56.2 267.15 53.48 265.6 52.67 264.87 52.15 263.63 52.38 262.59 60.38 252.02 61.05 250.69 58.25 251.02 55.62 251.79 53.52 251.58 52.22 248.89 52.22 248.34 52.48 247.2 52.45 246.66 52.13 245.88 51.14 244.49 50.83 243.76 50.95 242.62 51.47 241.07 52.15 239.64 52.82 238.64 53.74 238.02 54.83 237.7 56.05 237.62 57.3 237.7 58.55 238.06 61.08 239.41 62.23 239.68 63.52 239.05 64.5 237.81 65.39 236.4 66.26 235.34 70.96 233.18 71.92 232.11 71.92 231.48 71.59 231.11 71.03 230.78 70.48 230.16 70.34 229.64 70.34 228.54 70.26 228 69.72 226.78 68.5 224.83 68.25 223.62 68.35 223.19 68.6 222.75 68.8 222.3 68.75 221.72 68.35 220.58 68.33 220.1 68.33 219.5 68.43 218.96 68.8 217.82 68.91 217.2 68.83 216.53 68.5 215.39 68.47 214.73 68.33 214.15 67.77 213.92 67.19 213.75 66.81 213.3 66.81 212.82 67.29 211.21 67.4 210.08 67.4 209.48 67.26 208.94 66.86 208.49 65.86 208.09 65.49 207.76 65.34 206.51 65.72 205.25 65.86 204.19 65.01 203.53 62.7 202.95 61.7 202.43 61.34 202.25 61.34 202.83 61.08 203.46 60.28 204.82 60.1 205.48 59.69 206.58 58.69 207.36 57.49 207.87 56.3 208.13 52.13 207.97 51.16 208.34 50.6 208.67 50.02 208.75 49.54 208.97 49.19 210.21 46.6 213.92 44.88 215.62 35.29 221.28 33.14 223.04 31.52 225.1 30.41 227.19 30 228.47 29.86 229.83 29.49 231.08 28.58 231.92 26.07 233.33 23.8 235.09 21.92 237.07 18.66 241.96 17.7 243.89 17.04 244.57 15.97 244.82 14.81 245.22 13.95 246.18 12.86 248.16 11.46 249.55 6.2 253.12 5.51 253.94 4.7 255.25 4 256.68 3.71 257.86 4.58 261.23 4.58 262.63 3.71 264.69 3.27 265.35 2.9 265.68 2.46 265.97 1.84 266.57 1.57 267.44 1.97 268.62 2.53 269.83 2.9 270.93 2.86 271.89 2.36 274.97 1.84 276.05 1.65 276.55 1.43 277.98 1.07 278.29 0.58 278.5 0.26 279.02 0.02 279.68 0 280.38 0.51 281.32 2.46 282.79 3.23 284.01 8.19 289.08 8.66 290.07 9.11 291.42 10.1 292.6 12.46 294.44 14.4 296.39 15.94 298.99 16.01 301.38 13.62 302.74 11.16 303 10.84 303.55 10.76 304.98 10.66 305.61 10.07 306.75 9.95 307.49 10.02 307.78 10.28 308.32 10.31 308.65 10.18 309.09 9.37 309.76 9.14 310.13 9.47 311.56 10.72 313.4 12.27 315.15 13.62 316.33 17.29 318.25 18.15 319.5 23.43 324.96 24.57 326.65 27.66 333.48 28.94 338.66 28.98 343.77 27.33 348.18 25.11 350.34 22.66 351.15 20.02 350.63 17.42 348.99 16.61 347.81 16.09 347.33 15.32 347.33 13.87 349.98 13.44 350.17 12.23 350.23 11.16 352.33 10.53 354.38 10.47 356.81 10.94 359.35 12.01 361.81 13.7 364.23 15.54 365.96 17.59 367.28 20.49 368.67 21.75 369.04 22.37 369.31 24.36 370.77 26.05 371.36 28.58 373.82 30.67 374.7 31.84 375.47 32.68 377.26 33.57 377.75 37.8 379.29 43.86 382.67 53.55 387.23 64.28 393.06 73.72 397.4 74.78 398.1 81.69 404.17 82.06 404.71 82.35 404.9 83.41 406.29 83.49 406.62 83.78 406.91 84.12 409.03 85 410.98 86.1 412.79 89.11 416.14 93.08 418.74 93.67 419.66 94.09 420.8 98.32 425.61 98.96 426.82 99.31 428.15 99.44 429.62 99.84 431.04 100.83 432.19 103.25 434.39 104.58 436.44 105.74 439.05 106.59 441.73 106.93 444.3 106.86 444.75 106.55 445.7 106.52 446.36 106.7 446.94 107.21 447.91 107.59 449.01 114.04 457.68 115.22 460.13 115.33 460.94 115.18 461.53 114.97 462.01 114.83 462.63 114.78 463.44 114.83 463.84 115.49 464.32 121.14 473.25 124.33 476.7 131.31 481.99 132.34 482.98 134.29 485.84 135.38 486.48 141.33 492.02 142.59 493.72 143.4 495.48 143.84 496.83 147.03 502.74 147.41 504.36 147 505.58 145.41 505.87 145.41 506.27 146.81 507.77 147.69 508.51 149.56 509.24 150.96 510.24 153.36 512.51 155.18 514.83 156.62 517.32 157.46 519.87 157.51 522.47 156.47 525.08 156.07 526.51 156.43 527.69 159.52 531.24 160.37 532.94 161.43 534.08 161.61 534.37 161.91 535.22 162.49 535.99 162.94 536.94 162.83 538.37 162.46 539.06 161.99 539.55 161.66 540.03 161.61 540.84 162.86 540.51 163.41 541.35 163.67 543.77 164.19 544.87 164.85 545.39 165.69 545.76 166.65 546.26 167.3 546.83 167.96 547.56 168.37 548.47 168.23 549.61 167.96 550.13 167.54 550.5 167.01 550.75 165.76 550.98 165.18 551.27 164.88 551.55 165.14 551.67 165.84 551.96 166.42 552.7 166.87 553.69 167.01 554.78 167.28 555.3 167.82 554.64 168.41 553.43 168.67 552.29 169.18 551.52 170.32 551.27 171.46 551.63 171.98 552.7 172.04 554.49 171.98 555.05 171.61 555.6 170.65 556.44 170.32 557.1 171.05 557.58 171.46 558.43 171.63 559.24 171.79 559.61 172.12 559.82 173.66 561.25 174.18 560.96 175.03 560.85 175.79 561.14 176.12 561.91 176.05 564.3 176.12 565.04 177 566.37 178.22 567.24 178.8 568.05 177.77 569.26 178.37 570.25 178.77 571.72 179.2 575.58 180.27 579.21 181.64 581.5 187.35 588.4 188.02 589.98 187.81 591.11 187.22 592.19 186.93 593.65 187.15 594.32 188.24 596.37 188.54 597.62 188.5 597.87 188.32 598.18 188.16 598.5 188.16 598.87 188.35 599.21 188.57 599.41 188.82 599.57 188.98 599.72 189.36 600.23 189.76 600.63 190.09 601.19 190.19 602.02 190.6 603.31 192.14 605.81 192.32 607.24 192.06 607.84 191.7 608.08 191.44 608.45 191.44 609.34 191.63 610 191.96 610.62 192.39 611.13 194.12 612.83 195.04 614.11 196.47 616.87 196.85 617.45 198.09 618.96 198.27 619.59 198.46 621.08 198.72 621.64 201.28 623.96 201.83 624.81 202.01 625.35 202.13 626.7 202.24 627.3 203.63 629.39 203.86 630.06 204.15 631.37 204.81 632.26 206.43 633.58 211.38 642.43 212.09 643.23 213.37 644.41 213.85 644.93 214.22 645.59 214.66 646.84 215.1 647.38 215.45 646.98 216.13 647.94 217.15 651.21 218.95 652.94 219.76 654 219.66 654.95 221.41 657.49 222.07 658.92 221.75 660 222.81 661.19 223 661.46 222.85 662.19 222.26 663.34 222.11 664 222.59 664.61 223.51 665.24 224.16 666.04 223.81 667.12 224.47 667.89 224.72 670.42 225.71 672.34 226.26 673.73 226.56 675.27 226.23 676.37 225.2 676.82 224.14 676.78 223.33 676.99 223 678.28 223.18 679.42 223.73 680.37 225.05 681.78 226.59 682.94 235.96 687.94 237.93 689.6 240.54 690.78 241.58 691.43 242.35 692.5 242.82 692.98 243.49 693.15 244.01 693.45 244.48 694.11 245.33 695.69 246.35 696.86 246.56 697.34 246.62 697.86 246.16 698.45 246.39 698.89 247.43 700.24 248.09 700.87 248.89 701.17 249.77 701.64 250.64 702.81 251.31 704.25 251.58 705.57 252.64 708.18 252.64 709.4 251.12 709.98 251.68 711.15 252.09 713.8 252.41 715.05 253.32 716.52 253.59 717.11 254.06 718.97 254.58 720.34 254.87 724.49 254.62 725.93 254.03 726.91 253.32 727.8 252.82 728.94 255.35 729.19 258 730 260.13 731.55 261.08 733.96 260.97 734.62 260.72 735.1 260.56 735.62 260.72 736.49 261.08 737.09 262.15 738.07 262.37 738.41 263.02 738.44 266.49 739.88 270.78 742.97 273.93 746.21 274.97 747.89 275.88 750.28 276.04 752.58 274.79 754.2 275.45 755.26 276.54 756.04 277.62 756.6 278.08 756.93 278.39 757.62 280.55 760.92 282.21 762.02 282.64 762.62 282.72 763.2 282.64 764.82 283.2 765.63 285.77 770.7 286.9 772.16 291.1 775.73 291.71 776.47 292.04 777.41 292.26 780.17 293.3 785.47 294.11 787.59 294.26 789.02 294.87 790.16 301.45 796.78 304.87 802 305.67 802.84 306.45 803.2 307.3 803.79 309.72 807.5 312.03 812.5 312.51 814.77 312.92 819.36 311.88 824.5 311.18 826.45 310.49 828.48 310.26 830.16 309.72 831.37 309.43 833.03 308.36 835.38 307.8 837.99 307.55 838.79 306.89 838.39 306.23 837.8 305.67 837.14 305.45 836.45 305.72 835.52 305.67 835.16 305.24 834.98 304.17 834.95 303.62 835.01 303.4 835.16 302.16 835.78 301.3 836.51 300.64 838.79 300.21 839.71 300.1 840.56 300.68 841.55 301.49 842.07 302.33 842.28 303.25 842.28 304.21 842.17 304.54 841.92 304.83 841.47 305.24 841.18 305.85 841.34 306.18 841.7 306.11 842.14 305.93 842.62 305.85 843.06 306.7 847.29 306.66 847.36 306.7 848.97 306.85 849.52 307.03 849.93 307.07 850.3 306.7 850.7 306.89 851.44 306.7 852.23 306.23 852.91 305.64 853.15 305.42 853.6 306.3 858.26 307.18 858.89 307.84 858.41 307.55 857.02 310.85 857.85 311.62 858.29 312.11 859.1 312.39 860.07 312.92 860.9 313.9 861.27 314.87 861.75 315.6 862.85 316.06 864.22 316.36 866.01 316.66 866.42 316.8 866.75 316.59 867.26 316.26 867.52 314.52 868.07 315.82 870.17 316.21 870.63 316.8 870.87 318.31 871.01 318.94 871.31 319.75 872.14 320.92 873.8 321.62 874.5 323.67 875.75 324.56 876.7 324.92 878.1 324.3 879.31 324.04 880.08 324.3 880.41 324.7 880.56 325.11 880.93 326.5 882.47 326.98 883.32 327.31 884.27 327.57 886.95 328.08 888.17 328.96 889.04 331.5 890.33 331.94 890.65 332.33 891.07 332.79 891.65 333.14 892.34 333.6 892.94 334.25 893.15 334.76 893.3 335.34 893.6 335.88 893.93 336.08 894.22 336.31 894.92 336.86 895.29 338.18 895.76 341.7 897.86 342.92 898.93 343.8 899.58 346.08 900.36 351.04 902.79 353.72 904.88 353.94 905.32 353.82 907.26 353.94 907.7 354.6 908.37 356.76 909.83 357.24 910.46 357.69 911.67 360.51 915.79 361.06 917.22 361.57 918.28 362.45 918.97 365.62 919.42 366.83 919.98 369.77 922.72 370.18 923.32 370.47 923.86 370.53 924.64 370.28 925.26 369.58 925.59 368.46 925.56 370.06 927.17 372.48 928.24 374.25 929.34 373.81 931.1 373.34 931.39 372.75 931.66 372.26 931.95 372.15 932.41 372.53 932.78 373.95 933.23 374.25 933.46 374.62 934.44 375.54 934.85 376.75 935.03 377.92 935.4 378.62 935.96 380.45 937.97 381.42 938.63 381.82 938.75 382.25 938.56 383.14 938.41 383.95 938.67 385.59 939.99 395.77 945.65 399.71 947.01 400.77 948.03 403.64 949.94 414.76 954.35 415.29 954.68 415.68 955.09 416.38 956.56 416.68 956.77 417.19 957 417.52 957.48 417.67 958.14 417.82 959.36 418.11 959.68 422.03 961.92 422.92 962.54 424.13 963.06 427.07 962.83 428.5 963.2 429.6 964.05 430.47 964.9 431.48 965.51 434.08 965.88 435.03 966.13 440.92 968.94 442.02 969.82 442.2 970.33 442.27 971.06 442.2 972.43 442.39 972.83 442.83 973.09 443.85 973.49 448.7 976.95 452.57 980.35 454.36 981.49 458.95 983.18 460.86 984.21 461.26 984.58 461.85 985.21 462.32 985.97 462.51 986.78 466.01 986.01 469.49 986.94 476.17 989.75 479.89 990.68 483.23 992.34 485 992.73 485.59 993.03 486.1 993.62 486.87 996.22 487.38 997.07 488.37 996.63 489.22 996.96 490.17 997.55 491.28 997.85 493.67 997.8 494.7 998.17 496.96 999.79 499.61 1001.14 500.79 1002.07 512.07 1007.06 518.52 1011.73 520.8 1012.54 530.24 1013.64 533.73 1015.14 536.27 1015.55 536.86 1015.88 538.18 1016.72 538.55 1016.94 539.18 1017.08 539.59 1017.45 540.21 1018.34 540.75 1018.74 541.27 1018.82 541.81 1018.82 542.48 1019.03 543.87 1020 547.25 1023.96 547.81 1025.17 547.76 1026.38 548.02 1027.53 549.53 1028.43 552.39 1029.1 553.86 1029.77 554.46 1030.83 554.98 1031.38 557.43 1032.82 558.27 1033.61 558.39 1034.29 558.32 1035.6 558.65 1036.22 559.13 1036.45 562.94 1036.74 564.29 1037.14 565.58 1037.69 568.88 1039.64 570.37 1041.05 573.15 1044.38 575.1 1045.99 577.41 1047.03 587.48 1049.56 587.73 1049.7 588.75 1050.37 589.83 1051.32 590.38 1051.72 591.81 1052.2 594.16 1052.61 595.15 1052.9 596.14 1053.71 596.99 1055.65 597.13 1055.84 599.3 1057.35 600.95 1059.51 601.43 1059.8 601.81 1059.92 602.06 1060.21 602.31 1062.35 603.16 1064.84 603.41 1065.98 603.96 1072.37 604.34 1073.62 604.52 1074.86 604.26 1076.33 603.35 1077.55 602.97 1078.28 603.01 1078.95 603.28 1078.8 605.29 1078.51 606.54 1078.8 607.86 1079.45 610.06 1081.08 612.99 1082.32 613.96 1083.05 615.79 1085.15 616.6 1085.93 617.88 1086.69 621.01 1089.77 622.26 1089.92 625.84 1091.11 627.03 1091.77 629.6 1093.71 630.57 1094.12 631.45 1094.66 632 1095.91 632.79 1098.37 633.58 1099.07 635.74 1099.73 636.76 1100.36 640.28 1103.59 640.63 1103.74 641.21 1103.85 641.5 1103.99 641.83 1104.39 642.16 1105.07 642.39 1105.32 647.02 1109.55 648.74 1110.72 650.58 1111.52 652.53 1111.83 653.85 1112.4 657.3 1116.23 660.87 1118.8 662 1119.82 664.36 1118.59 667.48 1118.36 673.94 1118.98 677.07 1118.64 678.56 1118.21 682.87 1115.79 684.29 1115.3 686.11 1115.27 687.42 1114.76 688.48 1113.87 691.35 1110.45 693.74 1108.36 694.84 1107.16 696.15 1105.17 699.8 1096.88 699.98 1095.66 699.83 1094.48 699.36 1093.27 698 1090.95 697.68 1089.89 697.56 1088.3 697.04 1085.64 696.02 1083.42 695.32 1081.22 695.75 1078.53 697.7 1076.52 700.23 1076.37 703.07 1076.77 705.83 1076.29 708.58 1074.42 716.33 1066.89 716.33 1066.83 716.43 1062.3 716.25 1060.11 715.56 1058.23 714.67 1057.09 713.49 1055.84 711.04 1053.89 710.08 1053.56 706.85 1053.12 707.88 1051.54 708.84 1048.05 709.5 1046.66 709.75 1046.59 710.82 1046.4 711.19 1046.3 714.46 1043.31 716.33 1042.07 717.98 1041.41 719.7 1041.07 721.32 1040.45 722.61 1038.94 722.91 1037.96 722.61 1037.59 722.17 1037.36 721.98 1036.99 722.17 1036.41 722.53 1035.96 725.14 1034.46 725.85 1033.61 727.46 1030.14 733.6 1023.59 734.43 1022.27 735.57 1018.86 736.13 1017.97 737.12 1017.35 739.29 1017.16 740.38 1016.87 743.91 1015.07 744.94 1014.3 745.93 1012.97 746.67 1012.02 745.05 1009.78 744.76 1008.71 744.91 1006.77 744.84 1003.09 744.94 1001.85 745.49 1000.74 747.06 998.79 749.09 997.73 755.88 995.04 757.24 992.88 756.62 991.2 755.23 990.27 752.08 988.99 749.61 986.27 748.25 985.47 746.56 986.01 744.58 985.39 743.91 985.35 743.25 985.58 742.07 986.49 741.42 986.78 739.87 986.78 738.4 986.31 737.12 985.47 735.98 984.5 733.88 981.86 732.53 978.45 729.95 972.02 727.38 965.55 724.81 959.12 722.25 952.69 721.51 950.83 721.18 948.95 721.7 947.11 725.62 941.17 725.91 939.95 726.1 938.71 726.39 937.49 727.19 936.36 727.79 936.02 729.45 935.47 729.88 935.17 729.93 934.66 729.21 932.78 729.55 931.8 730.51 930.52 731.67 929.44 733.7 928.75 734.51 926.37 735.68 926.29 737.12 926.37 738.08 925.59 738.22 924.46 736.78 923.05 735.28 920.93 734.29 919.98 730.68 917.29 729.7 916.31 726.24 910.98 725.22 910.01 723.93 908.79 723.52 907.74 723.83 906.56 724.81 904.25 724.92 903.77 724.66 898.67 724.74 897.6 725.32 896.76 726.65 895.95 730.03 894.99 730.99 894.45 731.82 892.65 732.2 884.67 732.96 883.49 734.18 883.35 735.54 883.65 736.86 883.69 737.23 882.98 737.04 880.12 737.23 879.05 737.6 878.76 738.62 878.5 739.06 878.28 741.44 875.52 742.63 874.68 746.56 872.47 747.77 871.37 747.46 870.13 746.67 868.88 746.19 867.78 746.11 865.38 746.23 864.18 746.56 863.11 748.06 862 750.13 861.5 754.2 860.98 755.36 859.73 755.08 857.52 753.61 853.38 753.21 851.25 752.87 850.3 752.25 849.41 748.99 847.29 748.2 846.15 747.85 844.15 747.8 841.92 747.6 839.79 746.56 838.25 745.78 835.86 745.72 835.01 745.9 834.02 746.19 833.28 746.19 832.59 745.53 831.67 742.25 829.02 741.01 827.22 741.85 825.83 742.66 825.75 744.51 826.09 745.19 825.95 745.72 825.27 745.75 824.54 745.64 823.76 745.75 822.93 746.23 822.24 747.52 820.83 748.03 820.02 748.58 818.55 748.94 817.02 748.72 815.62 749.42 803.56 748.53 798.72 748.39 796.23 748.83 788.92 747.99 781.97 747.99 779.32 748.33 777.93 750.22 776.43 750.86 774.96 751.6 773.78 752.95 773.96 753.68 772.24 754.63 770.95 755.85 770.11 760.85 768.78 761.32 768.24 762.72 765.48 762.1 764.78 760.15 764.23 759.59 763.68 759.67 762.66 760.23 761.77 761.06 761.08 762.86 760.07 763.74 759.32 764.46 758.39 764.92 757.47 765.29 756.26 765.65 755.67 766.25 755.42 764.46 752.19"/></g></g></svg>